<svg id="Layer_1" data-name="Layer 1" xmlns="http://www.w3.org/2000/svg" viewBox="0 0 150.75 140.67"><defs><style>.cls-1,.cls-2{fill:#fff;}.cls-1{fill-rule:evenodd;}</style></defs><title>logo_alphenz_branco</title><path class="cls-1" d="M77.64,30.15a5.25,5.25,0,1,1-5.25,5.26,5.26,5.26,0,0,1,5.25-5.26Z" transform="translate(-1.13 -4.67)"/><polygon class="cls-2" points="44.14 52.62 52.29 58.36 53.65 56.86 45.19 50.91 44.14 52.62"/><polygon class="cls-2" points="108.89 52.67 107.84 50.96 99.39 56.9 100.75 58.39 108.89 52.67"/><polygon class="cls-2" points="16.15 98.13 52.29 58.36 44.14 52.62 16.15 98.13"/><polygon class="cls-2" points="136.86 98.13 108.89 52.67 100.75 58.39 136.86 98.13"/><path class="cls-2" d="M77.63,4.67l-28,45.6L59,56.88l12.71-14a9.55,9.55,0,0,1,5.77-17h.16a9.55,9.55,0,0,1,5.92,17l12.74,14,9.41-6.61Z" transform="translate(-1.13 -4.67)"/><polygon class="cls-2" points="120.93 124.58 107.09 114.54 107.09 124.6 103.2 124.6 103.2 106.98 117.05 117.01 117.05 106.95 120.93 106.95 120.93 124.58"/><polygon class="cls-2" points="20.61 124.59 17.86 120.16 8.73 120.16 10.82 116.79 15.72 116.79 12.45 111.3 4.14 124.59 0 124.59 10.82 106.96 13.93 106.96 24.74 124.59 20.61 124.59"/><path class="cls-2" d="M43.67,129.26V111.62h9.08a12,12,0,0,1,3.41.44,6.64,6.64,0,0,1,2.44,1.28,5.23,5.23,0,0,1,1.46,2.07,7.41,7.41,0,0,1,.47,2.71,7.25,7.25,0,0,1-.47,2.63,5.57,5.57,0,0,1-1.44,2.11,6.73,6.73,0,0,1-2.43,1.38,10.78,10.78,0,0,1-3.42.49H48.21l2.18-3.53h2.45a5.21,5.21,0,0,0,1.61-.22,3.11,3.11,0,0,0,1.12-.62,2.42,2.42,0,0,0,.66-1,3.51,3.51,0,0,0,.22-1.28,2.75,2.75,0,0,0-.88-2.17,4.07,4.07,0,0,0-2.73-.79H47.58v14.09Z" transform="translate(-1.13 -4.67)"/><polygon class="cls-2" points="76.68 106.96 76.68 114.09 66.78 114.09 66.78 106.96 62.88 106.96 62.88 124.59 66.78 124.59 66.78 117.57 76.68 117.57 76.68 124.59 80.6 124.59 80.6 106.96 76.68 106.96"/><polygon class="cls-2" points="88.31 121.04 88.31 117.46 95.22 117.46 97.31 114.09 88.31 114.09 88.31 110.52 99.17 110.52 99.17 106.96 84.41 106.96 84.41 124.59 99.39 124.59 99.39 121.04 88.31 121.04"/><polygon class="cls-2" points="124.48 124.59 148.64 124.59 150.75 121.12 131.57 121.12 132.89 119.41 142.43 106.96 125.16 106.96 125.16 110.43 135.17 110.43 133.92 112.02 124.48 124.59"/><polygon class="cls-2" points="40.18 121.33 40.29 121.08 40.29 121.03 30.56 121.03 30.56 106.96 26.66 106.96 26.66 124.59 38.17 124.59 40.18 121.33"/><path class="cls-2" d="M21,144.78l-.18-.53-.19-.54H18.71l-.19.54-.18.53H17.18q.28-.8.53-1.48t.49-1.28q.24-.6.47-1.14t.48-1.06h1.06q.24.52.48,1.06t.48,1.14q.24.6.49,1.28t.53,1.48Zm-.49-6.26-1.18,1-.49-.44,1-1.16Zm-.86,2.43-.11.29-.16.43-.21.54-.23.61h1.42l-.22-.62-.2-.54-.17-.43Z" transform="translate(-1.13 -4.67)"/><path class="cls-2" d="M26,140.68a1.36,1.36,0,0,0-1.13.43,1.84,1.84,0,0,0-.35,1.18,2.38,2.38,0,0,0,.09.66,1.45,1.45,0,0,0,.26.51,1.16,1.16,0,0,0,.43.33,1.43,1.43,0,0,0,.6.12h.32l.23,0v-1.72h1.12v2.45a4.18,4.18,0,0,1-.64.17,5.67,5.67,0,0,1-1.1.09,2.85,2.85,0,0,1-1-.17,2.12,2.12,0,0,1-.78-.5,2.24,2.24,0,0,1-.5-.81,3.17,3.17,0,0,1-.18-1.1,2.93,2.93,0,0,1,.19-1.1,2.37,2.37,0,0,1,.53-.81,2.23,2.23,0,0,1,.79-.5,2.72,2.72,0,0,1,1-.17,3.92,3.92,0,0,1,.63,0,4,4,0,0,1,.49.11,2.27,2.27,0,0,1,.34.13l.19.1-.32.89a2.93,2.93,0,0,0-.53-.21A2.23,2.23,0,0,0,26,140.68Z" transform="translate(-1.13 -4.67)"/><path class="cls-2" d="M31.49,144.88a2.5,2.5,0,0,1-.9-.15,1.68,1.68,0,0,1-.63-.41,1.63,1.63,0,0,1-.37-.62,2.56,2.56,0,0,1-.12-.8v-3.08H30.6v3a1.68,1.68,0,0,0,.07.51,1,1,0,0,0,.19.34.66.66,0,0,0,.29.19,1.14,1.14,0,0,0,.37.06.9.9,0,0,0,.66-.25,1.17,1.17,0,0,0,.25-.85v-3h1.12v3.08a2.52,2.52,0,0,1-.12.8,1.64,1.64,0,0,1-.37.63,1.67,1.67,0,0,1-.64.4A2.64,2.64,0,0,1,31.49,144.88Z" transform="translate(-1.13 -4.67)"/><path class="cls-2" d="M38.72,144.78l-.18-.53-.19-.54H36.42l-.19.54-.18.53H34.9q.28-.8.53-1.48t.49-1.28q.24-.6.47-1.14t.48-1.06h1.06q.24.52.48,1.06T38.9,142q.24.6.49,1.28t.53,1.48Zm-1.34-3.84-.11.29-.16.43-.21.54-.23.61h1.42l-.22-.62-.2-.54-.17-.43Z" transform="translate(-1.13 -4.67)"/><path class="cls-2" d="M49.43,144.78v-5h3.35v.94H50.55v1h2v.92h-2v1.2h2.4v.94Z" transform="translate(-1.13 -4.67)"/><path class="cls-2" d="M56.05,143.92a1.61,1.61,0,0,0,.39,0,.72.72,0,0,0,.25-.11.36.36,0,0,0,.13-.16.58.58,0,0,0,0-.21.48.48,0,0,0-.23-.4,3.28,3.28,0,0,0-.79-.35l-.49-.2a1.8,1.8,0,0,1-.44-.28,1.33,1.33,0,0,1-.31-.41,1.27,1.27,0,0,1-.12-.58,1.44,1.44,0,0,1,.13-.62,1.32,1.32,0,0,1,.36-.47,1.67,1.67,0,0,1,.57-.3,2.58,2.58,0,0,1,.76-.1,3,3,0,0,1,1.47.34l-.32.88a3,3,0,0,0-.46-.19,2,2,0,0,0-.61-.08,1.12,1.12,0,0,0-.58.11.37.37,0,0,0-.18.34.39.39,0,0,0,.06.23.63.63,0,0,0,.18.17,1.58,1.58,0,0,0,.27.14l.34.13c.26.1.48.19.67.28a1.81,1.81,0,0,1,.48.33,1.18,1.18,0,0,1,.28.44,1.75,1.75,0,0,1,.09.61,1.29,1.29,0,0,1-.49,1.08,2.35,2.35,0,0,1-1.47.38,4.07,4.07,0,0,1-.59,0,3.85,3.85,0,0,1-.47-.1l-.35-.12-.25-.12.31-.89a2.8,2.8,0,0,0,.55.22A2.83,2.83,0,0,0,56.05,143.92Z" transform="translate(-1.13 -4.67)"/><path class="cls-2" d="M62.21,140.68a1.36,1.36,0,0,0-1.13.43,1.84,1.84,0,0,0-.35,1.18,2.37,2.37,0,0,0,.09.66,1.45,1.45,0,0,0,.26.51,1.16,1.16,0,0,0,.43.33,1.43,1.43,0,0,0,.6.12h.32l.23,0v-1.72h1.12v2.45a4.19,4.19,0,0,1-.64.17,5.66,5.66,0,0,1-1.09.09,2.85,2.85,0,0,1-1-.17,2.11,2.11,0,0,1-.78-.5,2.23,2.23,0,0,1-.5-.81,3.17,3.17,0,0,1-.18-1.1,2.93,2.93,0,0,1,.19-1.1,2.37,2.37,0,0,1,.53-.81,2.24,2.24,0,0,1,.79-.5,2.72,2.72,0,0,1,1-.17,3.92,3.92,0,0,1,.63,0,4,4,0,0,1,.49.11,2.27,2.27,0,0,1,.34.13l.19.1-.32.89a2.94,2.94,0,0,0-.53-.21A2.24,2.24,0,0,0,62.21,140.68Z" transform="translate(-1.13 -4.67)"/><path class="cls-2" d="M70.47,142.29a3,3,0,0,1-.19,1.12,2.3,2.3,0,0,1-.52.81,2.13,2.13,0,0,1-.78.49,2.85,2.85,0,0,1-1,.16,2.77,2.77,0,0,1-1-.16,2.21,2.21,0,0,1-.79-.49,2.29,2.29,0,0,1-.53-.81,3,3,0,0,1-.19-1.12,2.91,2.91,0,0,1,.2-1.12,2.38,2.38,0,0,1,.54-.81,2.22,2.22,0,0,1,.79-.49,2.7,2.7,0,0,1,.94-.16,2.77,2.77,0,0,1,1,.16,2.18,2.18,0,0,1,.79.49,2.33,2.33,0,0,1,.53.81A3,3,0,0,1,70.47,142.29Zm-3.79,0a2.26,2.26,0,0,0,.09.66,1.51,1.51,0,0,0,.26.5,1.14,1.14,0,0,0,.41.33,1.41,1.41,0,0,0,1.11,0,1.13,1.13,0,0,0,.42-.33,1.51,1.51,0,0,0,.26-.5,2.26,2.26,0,0,0,.09-.66,2.29,2.29,0,0,0-.09-.66,1.51,1.51,0,0,0-.26-.51,1.14,1.14,0,0,0-.42-.33,1.31,1.31,0,0,0-.55-.11,1.26,1.26,0,0,0-.56.12,1.18,1.18,0,0,0-.41.33,1.5,1.5,0,0,0-.26.51A2.27,2.27,0,0,0,66.69,142.29Z" transform="translate(-1.13 -4.67)"/><path class="cls-2" d="M75.85,139.82v1h-1.5v4H73.23v-4h-1.5v-1Z" transform="translate(-1.13 -4.67)"/><path class="cls-2" d="M82.05,142.29a3,3,0,0,1-.19,1.12,2.3,2.3,0,0,1-.52.81,2.13,2.13,0,0,1-.78.49,2.85,2.85,0,0,1-1,.16,2.77,2.77,0,0,1-1-.16,2.21,2.21,0,0,1-.79-.49,2.29,2.29,0,0,1-.53-.81,3,3,0,0,1-.19-1.12,2.91,2.91,0,0,1,.2-1.12,2.38,2.38,0,0,1,.54-.81,2.22,2.22,0,0,1,.79-.49,2.7,2.7,0,0,1,.94-.16,2.77,2.77,0,0,1,1,.16,2.18,2.18,0,0,1,.79.49,2.33,2.33,0,0,1,.53.81A3,3,0,0,1,82.05,142.29Zm-3.79,0a2.26,2.26,0,0,0,.09.66,1.51,1.51,0,0,0,.26.5,1.14,1.14,0,0,0,.41.33,1.41,1.41,0,0,0,1.11,0,1.13,1.13,0,0,0,.42-.33,1.51,1.51,0,0,0,.26-.5,2.26,2.26,0,0,0,.09-.66,2.29,2.29,0,0,0-.09-.66,1.51,1.51,0,0,0-.26-.51,1.14,1.14,0,0,0-.42-.33,1.31,1.31,0,0,0-.55-.11,1.26,1.26,0,0,0-.56.12,1.18,1.18,0,0,0-.41.33,1.5,1.5,0,0,0-.26.51A2.27,2.27,0,0,0,78.26,142.29Z" transform="translate(-1.13 -4.67)"/><path class="cls-2" d="M91.85,144.78v-5H95.2v.94H93v1h2v.92H93v1.2h2.4v.94Z" transform="translate(-1.13 -4.67)"/><path class="cls-2" d="M97.12,144.78v-5h3.32v.94h-2.2v1h2v.94h-2v2Z" transform="translate(-1.13 -4.67)"/><path class="cls-2" d="M105.47,143.82v1h-3.31v-5h1.12v4Z" transform="translate(-1.13 -4.67)"/><path class="cls-2" d="M109,144.88a2.5,2.5,0,0,1-.9-.15,1.67,1.67,0,0,1-.63-.41,1.63,1.63,0,0,1-.37-.62,2.56,2.56,0,0,1-.12-.8v-3.08h1.12v3a1.67,1.67,0,0,0,.07.51.94.94,0,0,0,.19.34.67.67,0,0,0,.29.19,1.14,1.14,0,0,0,.37.06.9.9,0,0,0,.66-.25,1.17,1.17,0,0,0,.25-.85v-3H111v3.08a2.52,2.52,0,0,1-.12.8,1.64,1.64,0,0,1-.37.63,1.66,1.66,0,0,1-.64.4A2.64,2.64,0,0,1,109,144.88Z" transform="translate(-1.13 -4.67)"/><path class="cls-2" d="M113,144.78v-5h3.35v.94h-2.23v1h2v.92h-2v1.2h2.4v.94Z" transform="translate(-1.13 -4.67)"/><path class="cls-2" d="M121.63,144.78q-.48-.85-1-1.68a17.16,17.16,0,0,0-1.19-1.57v3.25h-1.1v-5h.91q.24.24.52.58t.58.73q.3.39.59.81l.55.81v-2.93h1.11v5Z" transform="translate(-1.13 -4.67)"/><path class="cls-2" d="M128.32,139.82v1h-1.5v4h-1.12v-4h-1.5v-1Z" transform="translate(-1.13 -4.67)"/><path class="cls-2" d="M130,144.78v-5h3.35v.94h-2.23v1h2v.92h-2v1.2h2.4v.94Z" transform="translate(-1.13 -4.67)"/><path class="cls-2" d="M136.59,143.92a1.61,1.61,0,0,0,.39,0,.72.72,0,0,0,.25-.11.36.36,0,0,0,.13-.16.58.58,0,0,0,0-.21.48.48,0,0,0-.23-.4,3.28,3.28,0,0,0-.79-.35l-.49-.2a1.8,1.8,0,0,1-.44-.28,1.33,1.33,0,0,1-.31-.41,1.27,1.27,0,0,1-.12-.58,1.44,1.44,0,0,1,.13-.62,1.32,1.32,0,0,1,.36-.47,1.67,1.67,0,0,1,.57-.3,2.58,2.58,0,0,1,.76-.1,3,3,0,0,1,1.47.34l-.32.88a3,3,0,0,0-.46-.19,2,2,0,0,0-.61-.08,1.12,1.12,0,0,0-.58.11.37.37,0,0,0-.18.34.39.39,0,0,0,.06.23.63.63,0,0,0,.18.17,1.58,1.58,0,0,0,.27.14l.34.13c.26.1.48.19.67.28a1.81,1.81,0,0,1,.48.33,1.18,1.18,0,0,1,.28.44,1.75,1.75,0,0,1,.09.61,1.29,1.29,0,0,1-.49,1.08,2.35,2.35,0,0,1-1.47.38,4.07,4.07,0,0,1-.59,0,3.85,3.85,0,0,1-.47-.1l-.35-.12-.25-.12.31-.89a2.8,2.8,0,0,0,.55.22A2.83,2.83,0,0,0,136.59,143.92Z" transform="translate(-1.13 -4.67)"/><rect class="cls-2" x="43.07" y="134.57" width="0.52" height="6.09"/><rect class="cls-2" x="85.65" y="134.57" width="0.52" height="6.09"/></svg>