<?xml version="1.0" encoding="utf-8"?>
<!-- Generator: Adobe Illustrator 16.0.0, SVG Export Plug-In . SVG Version: 6.00 Build 0)  -->
<!DOCTYPE svg PUBLIC "-//W3C//DTD SVG 1.1//EN" "http://www.w3.org/Graphics/SVG/1.1/DTD/svg11.dtd">
<svg version="1.1" id="Camada_1" xmlns="http://www.w3.org/2000/svg" xmlns:xlink="http://www.w3.org/1999/xlink" x="0px" y="0px"
	 width="612px" height="792px" viewBox="0 0 612 792" enable-background="new 0 0 612 792" xml:space="preserve">
<g>
	<g id="LWPOLYLINE_6_">
		<path fill="#146432" d="M319.977,421.131v28.125c0,15.688-12.773,28.406-28.534,28.406c-15.759,0-28.534-12.719-28.534-28.406
			c0-15.689,12.774-28.406,28.534-28.406h28.253"/>
	</g>
	<g id="LWPOLYLINE_5_">
		<path fill="#8CBE28" d="M317.152,423.662v25.594c0,14.135-11.51,25.594-25.709,25.594c-14.198,0-25.708-11.459-25.708-25.594
			s11.51-25.594,25.708-25.594H317.152z"/>
	</g>
	<path fill="#FFFFFF" d="M306.817,440.135h-4.172h-24.179l14.176,23.357L306.817,440.135z M298.472,444.844l-5.838,9.609
		l-5.83-9.609H298.472z"/>
</g>
<g>
	<g id="ARC_3_">
		<path fill="none" d="M319.977,320.881c0-0.155-0.125-0.281-0.281-0.281"/>
	</g>
	<g id="LWPOLYLINE_8_">
		<path fill="#146432" d="M319.977,320.881v28.125c0,15.688-12.775,28.406-28.535,28.406c-15.759,0-28.534-12.719-28.534-28.406
			c0-15.688,12.775-28.406,28.534-28.406h28.253"/>
	</g>
	<g id="LWPOLYLINE_7_">
		<path fill="#8CBE28" d="M317.152,323.413v25.594c0,14.135-11.51,25.594-25.71,25.594c-14.198,0-25.708-11.459-25.708-25.594
			c0-14.136,11.511-25.594,25.708-25.594H317.152z"/>
	</g>
	<path fill="#FDFDFD" d="M292.204,328.937L291,330.428c0,0-3.08,3.829-6.213,8.598c-1.566,2.383-3.177,4.986-4.382,7.505
		c-1.206,2.518-2.071,4.926-2.071,7.158c0,7.864,6.247,14.313,13.869,14.313c7.619,0,13.867-6.448,13.867-14.313
		c0-2.232-0.863-4.64-2.068-7.158c-1.206-2.518-2.817-5.123-4.383-7.505c-3.134-4.769-6.212-8.598-6.212-8.598L292.204,328.937z
		 M292.204,334.057c0.864,1.097,2.472,3.047,4.911,6.759c1.518,2.307,2.985,4.844,4.094,7.157c1.105,2.313,1.782,4.449,1.782,5.717
		c0,6.129-4.847,11.13-10.788,11.13c-5.939,0-10.787-5.001-10.787-11.13c0-1.268,0.675-3.404,1.782-5.717
		c1.107-2.313,2.577-4.848,4.094-7.157C289.73,337.104,291.337,335.153,292.204,334.057z M284.499,353.688
		c0,4.365,3.475,7.951,7.706,7.951v-3.184c-2.551,0-4.624-2.136-4.624-4.768H284.499L284.499,353.688z"/>
</g>
<rect x="240.449" y="293.5" fill="none" stroke="#E7E7E7" stroke-miterlimit="10" width="101.987" height="207.974"/>
<g id="ARC_1_">
	<path fill="none" d="M232,278c0-0.276-0.225-0.5-0.502-0.5"/>
</g>
</svg>
