<?xml version="1.0" encoding="utf-8"?>
<!-- Generator: Adobe Illustrator 16.0.0, SVG Export Plug-In . SVG Version: 6.00 Build 0)  -->
<!DOCTYPE svg PUBLIC "-//W3C//DTD SVG 1.1//EN" "http://www.w3.org/Graphics/SVG/1.1/DTD/svg11.dtd">
<svg version="1.1" id="Camada_1" xmlns="http://www.w3.org/2000/svg" xmlns:xlink="http://www.w3.org/1999/xlink" x="0px" y="0px"
	 width="51.468px" height="50.5px" viewBox="155.684 322.989 51.468 50.5" enable-background="new 155.684 322.989 51.468 50.5"
	 xml:space="preserve">
<g id="ARC_1_">
	<path fill="none" d="M232,278c0-0.276-0.225-0.5-0.502-0.5"/>
</g>
<g id="ARC_3_">
	<path fill="none" d="M206.636,323.239c0-0.138-0.112-0.25-0.251-0.25"/>
</g>
<g id="LWPOLYLINE_8_">
	<path fill="#146432" d="M206.636,323.239v25c0,13.945-11.355,25.25-25.364,25.25c-14.008,0-25.363-11.305-25.363-25.25
		c0-13.945,11.355-25.25,25.363-25.25h25.113"/>
</g>
<g id="LWPOLYLINE_7_">
	<path fill="#8CBE28" d="M204.125,325.49v22.75c0,12.564-10.231,22.75-22.853,22.75c-12.621,0-22.852-10.186-22.852-22.75
		c0-12.565,10.231-22.75,22.852-22.75H204.125z"/>
</g>
<g>
	<path fill="#FDFDFD" d="M181.396,337.399l-0.9,1.12c0,0-2.303,2.876-4.645,6.457c-1.171,1.79-2.376,3.744-3.277,5.636
		c-0.9,1.892-1.548,3.699-1.548,5.375c0,5.907,4.671,10.748,10.37,10.748c5.697,0,10.368-4.842,10.368-10.748
		c0-1.676-0.646-3.483-1.546-5.375c-0.902-1.89-2.106-3.846-3.278-5.636c-2.342-3.581-4.645-6.457-4.645-6.457L181.396,337.399z
		 M181.396,341.244c0.646,0.824,1.849,2.289,3.671,5.076c1.134,1.732,2.232,3.637,3.061,5.374c0.827,1.737,1.333,3.341,1.333,4.293
		c0,4.603-3.624,8.358-8.066,8.358c-4.44,0-8.065-3.756-8.065-8.358c0-0.952,0.504-2.556,1.332-4.293
		c0.828-1.737,1.927-3.641,3.061-5.374C179.547,343.533,180.75,342.067,181.396,341.244z M175.636,355.986
		c0,3.278,2.598,5.97,5.761,5.97v-2.39c-1.907,0-3.458-1.604-3.458-3.58H175.636L175.636,355.986z"/>
	<g>
		<g id="SPLINE">
			<path fill="#FFFFFF" d="M172.731,329.38c-0.103,0.02-0.198,0.077-0.275,0.167c-0.673,0.703-1.843,0.979-2.528,0.979
				c-0.313,0-0.594-0.063-0.924-0.063c-0.287-0.005-0.521,0.29-0.526,0.658c-0.004,0.367,0.225,0.671,0.511,0.676
				c0.004,0,0.01,0,0.014,0c0.189,0,0.511,0.062,0.924,0.062c0.782,0,1.914-0.298,2.854-1.083c0.941,0.794,2.069,1.083,2.853,1.083
				c0.781,0,1.914-0.298,2.853-1.083c0.942,0.794,2.069,1.083,2.853,1.083c0.781,0,1.913-0.298,2.853-1.083
				c0.943,0.794,2.069,1.083,2.853,1.083c0.781,0,1.915-0.298,2.852-1.083c0.942,0.794,2.07,1.083,2.854,1.083
				c0.412,0,0.798-0.077,1.134-0.249c0.269-0.138,0.399-0.53,0.292-0.876c-0.108-0.345-0.412-0.512-0.682-0.375
				c-0.182,0.094-0.432,0.167-0.744,0.167c-0.686,0-1.84-0.276-2.513-0.979c-0.192-0.206-0.473-0.206-0.664,0
				c-0.674,0.704-1.844,0.979-2.529,0.979c-0.685,0-1.838-0.276-2.513-0.979c-0.191-0.206-0.471-0.206-0.664,0
				c-0.674,0.704-1.843,0.979-2.529,0.979c-0.686,0-1.839-0.276-2.513-0.979c-0.192-0.206-0.471-0.206-0.664,0
				c-0.673,0.704-1.842,0.979-2.528,0.979c-0.686,0-1.839-0.276-2.513-0.979c-0.094-0.106-0.216-0.165-0.34-0.166
				C172.764,329.379,172.748,329.379,172.731,329.38z"/>
		</g>
		<g id="SPLINE_1_">
			<path fill="#FFFFFF" d="M172.731,333.089c-0.103,0.019-0.198,0.077-0.275,0.166c-0.673,0.704-1.843,0.979-2.528,0.979
				c-0.313,0-0.594-0.063-0.924-0.063c-0.287-0.005-0.521,0.29-0.526,0.657s0.225,0.671,0.511,0.676c0.004,0,0.01,0,0.014,0
				c0.189,0,0.511,0.063,0.924,0.063c0.782,0,1.914-0.297,2.854-1.084c0.941,0.794,2.069,1.084,2.853,1.084
				c0.781,0,1.914-0.297,2.853-1.084c0.942,0.794,2.069,1.084,2.853,1.084c0.781,0,1.913-0.297,2.853-1.084
				c0.943,0.794,2.069,1.084,2.853,1.084c0.781,0,1.915-0.297,2.852-1.084c0.942,0.794,2.07,1.084,2.854,1.084
				c0.412,0,0.798-0.076,1.134-0.25c0.269-0.137,0.399-0.53,0.292-0.874c-0.108-0.345-0.412-0.513-0.682-0.376
				c-0.182,0.094-0.432,0.167-0.744,0.167c-0.686,0-1.84-0.276-2.513-0.979c-0.192-0.207-0.473-0.207-0.664,0
				c-0.674,0.704-1.844,0.979-2.529,0.979c-0.685,0-1.838-0.276-2.513-0.979c-0.191-0.207-0.471-0.207-0.664,0
				c-0.674,0.704-1.843,0.979-2.529,0.979c-0.686,0-1.839-0.276-2.513-0.979c-0.192-0.207-0.471-0.207-0.664,0
				c-0.673,0.704-1.842,0.979-2.528,0.979c-0.686,0-1.839-0.276-2.513-0.979c-0.094-0.106-0.216-0.165-0.34-0.166
				C172.764,333.087,172.748,333.087,172.731,333.089z"/>
		</g>
	</g>
</g>
</svg>
