<?xml version="1.0" encoding="utf-8"?>
<!-- Generator: Adobe Illustrator 16.0.0, SVG Export Plug-In . SVG Version: 6.00 Build 0)  -->
<!DOCTYPE svg PUBLIC "-//W3C//DTD SVG 1.1//EN" "http://www.w3.org/Graphics/SVG/1.1/DTD/svg11.dtd">
<svg version="1.1" id="Camada_1" xmlns="http://www.w3.org/2000/svg" xmlns:xlink="http://www.w3.org/1999/xlink" x="0px" y="0px"
	 width="612px" height="792px" viewBox="0 0 612 792" enable-background="new 0 0 612 792" xml:space="preserve">
<g>
	<g id="LWPOLYLINE_6_">
		<path fill="#146432" d="M319.977,421.131v28.125c0,15.688-12.773,28.406-28.534,28.406c-15.759,0-28.534-12.719-28.534-28.406
			c0-15.689,12.774-28.406,28.534-28.406h28.253"/>
	</g>
	<g id="LWPOLYLINE_5_">
		<path fill="#8CBE28" d="M317.152,423.662v25.594c0,14.135-11.51,25.594-25.709,25.594c-14.198,0-25.708-11.459-25.708-25.594
			s11.51-25.594,25.708-25.594H317.152z"/>
	</g>
	<path fill="#FFFFFF" d="M306.817,440.135h-4.172h-24.179l14.176,23.357L306.817,440.135z M298.472,444.844l-5.838,9.609
		l-5.83-9.609H298.472z"/>
</g>
<g id="ARC_3_">
	<path fill="none" d="M319.977,320.881c0-0.155-0.125-0.281-0.281-0.281"/>
</g>
<g id="LWPOLYLINE_8_">
	<path fill="#146432" d="M319.977,320.881v28.125c0,15.688-12.775,28.406-28.535,28.406c-15.759,0-28.534-12.719-28.534-28.406
		c0-15.688,12.775-28.406,28.534-28.406h28.253"/>
</g>
<g id="LWPOLYLINE_7_">
	<path fill="#8CBE28" d="M317.152,323.413v25.594c0,14.135-11.51,25.594-25.71,25.594c-14.198,0-25.708-11.459-25.708-25.594
		c0-14.136,11.511-25.594,25.708-25.594H317.152z"/>
</g>
<rect x="240.449" y="293.5" fill="none" stroke="#E7E7E7" stroke-miterlimit="10" width="101.987" height="207.974"/>
<g id="ARC_1_">
	<path fill="none" d="M232,278c0-0.276-0.225-0.5-0.502-0.5"/>
</g>
<g>
	<path fill="#FFFFFF" d="M275.71,330.971c-0.36,0.038-0.624,0.396-0.591,0.8c0.034,0.404,0.354,0.702,0.714,0.664l0,0v5.718
		c0,5.304,3.869,9.651,8.592,9.651h6.393c-0.005,0.404,0.283,0.736,0.643,0.743c0.359,0.005,0.655-0.317,0.66-0.722
		c0-0.007,0-0.014,0-0.021h6.394c0.421,0,0.773,0.397,0.773,0.87v5.717c-0.021-0.001-0.042-0.001-0.062,0
		c-0.36,0.019-0.637,0.361-0.622,0.767c0.018,0.404,0.323,0.716,0.683,0.697h7.82c0.358,0.006,0.655-0.318,0.66-0.723
		c0.005-0.403-0.282-0.735-0.642-0.741c-0.007,0-0.014,0-0.019,0v-5.717c0-5.305-3.872-9.652-8.593-9.652h-6.394
		c0.009-0.404-0.276-0.74-0.637-0.75c-0.053-0.001-0.105,0.005-0.158,0.018c-0.302,0.076-0.517,0.382-0.509,0.731h-6.394
		c-0.42,0-0.773-0.396-0.773-0.869v-5.718c0.359,0.005,0.656-0.317,0.661-0.722s-0.283-0.736-0.642-0.742c-0.007,0-0.013,0-0.02,0
		h-7.817c-0.021-0.001-0.042-0.001-0.062,0C275.75,330.969,275.729,330.969,275.71,330.971z M277.135,332.435h5.213v5.718
		c0,1.285,0.933,2.333,2.078,2.333h6.393v5.854h-6.393c-4.01,0-7.291-3.684-7.291-8.187V332.435z M292.121,340.485h6.394
		c4.008,0,7.289,3.685,7.289,8.187v5.718h-5.212v-5.718c0-1.285-0.934-2.333-2.078-2.333h-6.393V340.485L292.121,340.485z
		 M303.198,355.877l-0.57,1.074c0,0-0.661,1.253-1.324,2.721c-0.332,0.735-0.659,1.538-0.917,2.265
		c-0.257,0.727-0.448,1.342-0.448,1.968c0,2.008,1.468,3.658,3.258,3.658c1.788,0,3.258-1.65,3.258-3.658
		c0-0.625-0.192-1.241-0.448-1.968c-0.257-0.727-0.584-1.528-0.917-2.265c-0.662-1.469-1.323-2.721-1.323-2.721L303.198,355.877z
		 M303.198,358.873c0.247,0.494,0.358,0.679,0.713,1.464c0.32,0.71,0.643,1.468,0.875,2.126c0.232,0.658,0.366,1.26,0.366,1.442
		c0,1.211-0.876,2.195-1.955,2.195s-1.955-0.984-1.955-2.195c0-0.181,0.134-0.782,0.366-1.442c0.232-0.658,0.556-1.416,0.875-2.126
		C302.84,359.551,302.951,359.367,303.198,358.873z"/>
</g>
</svg>
