<?xml version="1.0" encoding="utf-8"?>
<!-- Generator: Adobe Illustrator 16.0.0, SVG Export Plug-In . SVG Version: 6.00 Build 0)  -->
<!DOCTYPE svg PUBLIC "-//W3C//DTD SVG 1.1//EN" "http://www.w3.org/Graphics/SVG/1.1/DTD/svg11.dtd">
<svg version="1.1" id="Camada_1" xmlns="http://www.w3.org/2000/svg" xmlns:xlink="http://www.w3.org/1999/xlink" x="0px" y="0px"
	 width="49.167px" height="57.667px" viewBox="0 0 49.167 57.667" enable-background="new 0 0 49.167 57.667" xml:space="preserve">
<rect fill="#6BB9F1" stroke="#000000" stroke-width="0" stroke-linecap="round" stroke-linejoin="round" stroke-miterlimit="10" width="49.167" height="57.667"/>
<g>
	<g>
		<rect x="2.25" y="4.333" fill="#70B7E6" width="44.5" height="48.37"/>
		<path fill="#FFFFFF" d="M15.203,6.752c-5.126,0-9.298,4.096-9.298,9.129v0.156c0,2.781,0.533,5.5,1.585,8.084L8.8,27.335
			c-0.131,0.189-0.233,0.401-0.297,0.63l-3.904,14.05c-0.083,0.304-0.125,0.613-0.125,0.922v5.244c0,1.159,0.962,2.104,2.146,2.104
			h35.758c1.184,0,2.147-0.945,2.147-2.104v-5.244c0-0.311-0.043-0.618-0.127-0.922l-3.902-14.05
			c-0.254-0.913-1.106-1.553-2.069-1.553h-1.055V14.477c0-1.16-0.963-2.107-2.145-2.107c-1.186,0-2.147,0.947-2.147,2.107v0.702
			h-4.29v-2.105c0-1.159-0.966-2.107-2.146-2.107h-2.898c-1.703-2.605-4.662-4.213-7.829-4.213H15.203z M15.203,8.156h0.715
			c2.371,0,4.6,1.071,6.083,2.844c-1.014,0.169-1.793,1.03-1.793,2.071v2.105h-4.291v-0.701c0-1.161-0.963-2.107-2.147-2.107
			c-1.181,0-2.144,0.946-2.144,2.107v11.936h-1.053c-0.199,0-0.389,0.033-0.575,0.083l-1.18-2.896
			c-0.984-2.417-1.484-4.96-1.484-7.563v-0.157C7.334,11.622,10.864,8.156,15.203,8.156z M22.355,12.37h4.29
			c0.394,0,0.716,0.317,0.716,0.703v2.105v1.405v2.851c0,0.322-0.077,0.646-0.229,0.941l-0.729,1.439
			c-0.121,0.239-0.364,0.386-0.644,0.386h-2.518c-0.278,0-0.522-0.146-0.644-0.386l-0.515-1.018h3.134
			c0.395,0,0.716-0.314,0.716-0.702c0-0.388-0.321-0.703-0.716-0.703H21.64v-2.809v-1.405v-2.105
			C21.639,12.686,21.961,12.37,22.355,12.37z M13.771,13.773c0.396,0,0.717,0.316,0.717,0.703v12.638
			c0,0.389,0.321,0.702,0.715,0.702h18.593c0.396,0,0.719-0.313,0.719-0.702V14.477c0-0.387,0.32-0.703,0.716-0.703
			c0.393,0,0.713,0.316,0.713,0.703v12.638c0,0.389,0.32,0.702,0.716,0.702h1.769c0.322,0,0.605,0.212,0.689,0.519l3.758,13.525
			H6.125l3.756-13.525c0.087-0.306,0.369-0.519,0.691-0.519h1.768c0.396,0,0.715-0.313,0.715-0.702V14.477
			C13.056,14.089,13.377,13.773,13.771,13.773z M15.918,16.582h4.291v2.852c0,0.541,0.127,1.08,0.378,1.564l0.731,1.44
			c0.363,0.716,1.101,1.165,1.922,1.165h0.544v0.703c0,0.388,0.32,0.702,0.715,0.702c0.396,0,0.717-0.314,0.717-0.702v-0.703h0.543
			c0.822,0,1.557-0.449,1.925-1.165l0.729-1.44c0.25-0.484,0.379-1.023,0.379-1.564v-2.852h4.29v9.831H15.918V16.582z
			 M13.706,29.221c-0.34,0-0.633,0.237-0.7,0.564l-2.015,9.83c-0.042,0.207,0.012,0.421,0.148,0.582
			c0.135,0.166,0.339,0.257,0.554,0.257h25.613c0.215,0,0.42-0.091,0.554-0.257c0.137-0.161,0.191-0.375,0.148-0.582l-2.013-9.831
			c-0.067-0.326-0.361-0.564-0.7-0.564L13.706,29.221L13.706,29.221z M14.292,30.625h20.415l0.576,2.823
			c-0.019-0.003-0.037-0.013-0.056-0.013c-0.396,0-0.717,0.315-0.717,0.703v1.403c0,0.389,0.32,0.703,0.717,0.703
			c0.239,0,0.439-0.123,0.569-0.299l0.636,3.107H12.564l0.637-3.107c0.13,0.176,0.331,0.299,0.569,0.299
			c0.396,0,0.716-0.314,0.716-0.703v-1.403c0-0.388-0.321-0.703-0.716-0.703c-0.02,0-0.036,0.01-0.057,0.013L14.292,30.625z
			 M17.348,33.435c-0.396,0-0.715,0.315-0.715,0.703v1.403c0,0.389,0.319,0.703,0.715,0.703c0.395,0,0.715-0.314,0.715-0.703v-1.403
			C18.063,33.748,17.743,33.435,17.348,33.435z M20.923,33.435c-0.396,0-0.715,0.315-0.715,0.703v1.403
			c0,0.389,0.319,0.703,0.715,0.703c0.396,0,0.715-0.314,0.715-0.703v-1.403C21.639,33.748,21.32,33.435,20.923,33.435z
			 M24.5,33.435c-0.395,0-0.715,0.315-0.715,0.703v1.403c0,0.389,0.32,0.703,0.715,0.703c0.396,0,0.717-0.314,0.717-0.703v-1.403
			C25.216,33.748,24.895,33.435,24.5,33.435z M28.074,33.435c-0.393,0-0.715,0.315-0.715,0.703v1.403
			c0,0.389,0.322,0.703,0.715,0.703c0.396,0,0.717-0.314,0.717-0.703v-1.403C28.791,33.748,28.47,33.435,28.074,33.435z
			 M31.654,33.435c-0.396,0-0.719,0.315-0.719,0.703v1.403c0,0.389,0.323,0.703,0.719,0.703c0.395,0,0.713-0.314,0.713-0.703v-1.403
			C32.367,33.748,32.048,33.435,31.654,33.435z M5.905,43.262h37.189v4.917c0,0.386-0.32,0.7-0.714,0.7H6.62
			c-0.396,0-0.715-0.314-0.715-0.7V43.262z M24.5,44.668c-0.788,0-1.43,0.629-1.43,1.404c0,0.777,0.642,1.405,1.43,1.405
			c0.79,0,1.433-0.628,1.433-1.405C25.932,45.297,25.29,44.668,24.5,44.668z"/>
	</g>
</g>
</svg>
