<?xml version="1.0" encoding="utf-8"?>
<!-- Generator: Adobe Illustrator 16.0.0, SVG Export Plug-In . SVG Version: 6.00 Build 0)  -->
<!DOCTYPE svg PUBLIC "-//W3C//DTD SVG 1.1//EN" "http://www.w3.org/Graphics/SVG/1.1/DTD/svg11.dtd">
<svg version="1.1" id="Camada_1" xmlns="http://www.w3.org/2000/svg" xmlns:xlink="http://www.w3.org/1999/xlink" x="0px" y="0px"
	 width="612px" height="792px" viewBox="0 0 612 792" enable-background="new 0 0 612 792" xml:space="preserve">
<g>
	<g id="LWPOLYLINE_6_">
		<path fill="#146432" d="M319.977,421.131v28.125c0,15.688-12.773,28.406-28.534,28.406c-15.759,0-28.534-12.719-28.534-28.406
			c0-15.689,12.774-28.406,28.534-28.406h28.253"/>
	</g>
	<g id="LWPOLYLINE_5_">
		<path fill="#8CBE28" d="M317.152,423.662v25.594c0,14.135-11.51,25.594-25.709,25.594c-14.198,0-25.708-11.459-25.708-25.594
			s11.51-25.594,25.708-25.594H317.152z"/>
	</g>
	<path fill="#FFFFFF" d="M306.817,440.135h-4.172h-24.179l14.176,23.357L306.817,440.135z M298.472,444.844l-5.838,9.609
		l-5.83-9.609H298.472z"/>
</g>
<g id="ARC_3_">
	<path fill="none" d="M319.977,320.881c0-0.155-0.125-0.281-0.281-0.281"/>
</g>
<g id="LWPOLYLINE_8_">
	<path fill="#146432" d="M319.977,320.881v28.125c0,15.688-12.775,28.406-28.535,28.406c-15.759,0-28.534-12.719-28.534-28.406
		c0-15.688,12.775-28.406,28.534-28.406h28.253"/>
</g>
<g id="LWPOLYLINE_7_">
	<path fill="#8CBE28" d="M317.152,323.413v25.594c0,14.135-11.51,25.594-25.71,25.594c-14.198,0-25.708-11.459-25.708-25.594
		c0-14.136,11.511-25.594,25.708-25.594H317.152z"/>
</g>
<rect x="240.449" y="293.5" fill="none" stroke="#E7E7E7" stroke-miterlimit="10" width="101.987" height="207.974"/>
<g id="ARC_1_">
	<path fill="none" d="M232,278c0-0.276-0.225-0.5-0.502-0.5"/>
</g>
<g>
	<path fill="#FFFFFF" d="M291.56,330.75c-0.065,0.01-0.13,0.025-0.191,0.048l-15.593,4.61h-0.766c-1.923,0-3.501,1.399-3.501,3.105
		v20.963c0,0.429,0.392,0.776,0.875,0.776H310.9c0.484,0,0.875-0.348,0.875-0.776v-20.963c0-1.706-1.578-3.105-3.5-3.105h-0.767
		l-15.593-4.61C291.802,330.761,291.681,330.745,291.56,330.75z M291.642,332.327l10.395,3.082H286.39l-5.252,1.553h27.138
		c0.977,0,1.75,0.686,1.75,1.553v20.187h-36.766v-20.187c0-0.867,0.773-1.553,1.75-1.553h0.875c0.093-0.003,0.186-0.02,0.273-0.048
		L291.642,332.327z M291.478,341.62c-0.208,0.038-0.392,0.141-0.52,0.291c0,0-1.123,1.227-2.244,2.742
		c-0.561,0.757-1.122,1.598-1.559,2.402c-0.437,0.805-0.766,1.559-0.766,2.33c0,2.563,2.362,4.658,5.252,4.658
		s5.252-2.095,5.252-4.658c0-0.771-0.33-1.525-0.766-2.33c-0.437-0.804-0.999-1.645-1.559-2.402
		c-1.121-1.515-2.243-2.742-2.243-2.742c-0.184-0.206-0.472-0.315-0.766-0.291C291.533,341.619,291.505,341.619,291.478,341.62z
		 M291.642,343.73c0.393,0.454,0.727,0.794,1.45,1.771c0.534,0.722,1.066,1.525,1.45,2.232c0.384,0.707,0.602,1.348,0.602,1.65
		c0,1.724-1.558,3.105-3.501,3.105s-3.501-1.382-3.501-3.105c0-0.302,0.218-0.943,0.602-1.65c0.384-0.707,0.917-1.511,1.45-2.232
		C290.916,344.525,291.249,344.184,291.642,343.73z"/>
</g>
</svg>
