<?xml version="1.0" encoding="utf-8"?>
<!-- Generator: Adobe Illustrator 16.0.0, SVG Export Plug-In . SVG Version: 6.00 Build 0)  -->
<!DOCTYPE svg PUBLIC "-//W3C//DTD SVG 1.1//EN" "http://www.w3.org/Graphics/SVG/1.1/DTD/svg11.dtd">
<svg version="1.1" id="Camada_1" xmlns="http://www.w3.org/2000/svg" xmlns:xlink="http://www.w3.org/1999/xlink" x="0px" y="0px"
	 width="612px" height="792px" viewBox="0 0 612 792" enable-background="new 0 0 612 792" xml:space="preserve">
<g>
	<g id="LWPOLYLINE_6_">
		<path fill="#146432" d="M319.977,421.131v28.125c0,15.688-12.773,28.406-28.534,28.406c-15.759,0-28.534-12.719-28.534-28.406
			c0-15.689,12.774-28.406,28.534-28.406h28.253"/>
	</g>
	<g id="LWPOLYLINE_5_">
		<path fill="#8CBE28" d="M317.152,423.662v25.594c0,14.135-11.51,25.594-25.709,25.594c-14.198,0-25.708-11.459-25.708-25.594
			s11.51-25.594,25.708-25.594H317.152z"/>
	</g>
	<path fill="#FFFFFF" d="M306.817,440.135h-4.172h-24.179l14.176,23.357L306.817,440.135z M298.472,444.844l-5.838,9.609
		l-5.83-9.609H298.472z"/>
</g>
<g id="ARC_3_">
	<path fill="none" d="M319.977,320.881c0-0.155-0.125-0.281-0.281-0.281"/>
</g>
<g id="LWPOLYLINE_8_">
	<path fill="#146432" d="M319.977,320.881v28.125c0,15.688-12.775,28.406-28.535,28.406c-15.759,0-28.534-12.719-28.534-28.406
		c0-15.688,12.775-28.406,28.534-28.406h28.253"/>
</g>
<g id="LWPOLYLINE_7_">
	<path fill="#8CBE28" d="M317.152,323.413v25.594c0,14.135-11.51,25.594-25.71,25.594c-14.198,0-25.708-11.459-25.708-25.594
		c0-14.136,11.511-25.594,25.708-25.594H317.152z"/>
</g>
<rect x="240.449" y="293.5" fill="none" stroke="#E7E7E7" stroke-miterlimit="10" width="101.987" height="207.974"/>
<g id="ARC_1_">
	<path fill="none" d="M232,278c0-0.276-0.225-0.5-0.502-0.5"/>
</g>
<g>
	<path fill="#FFFFFF" d="M281.437,331.307c-0.383,0.073-0.65,0.562-0.596,1.087c0.054,0.528,0.407,0.895,0.791,0.822h4.158
		c0.384,0.007,0.699-0.415,0.704-0.942c0.005-0.526-0.3-0.959-0.684-0.967c-0.006,0-0.013,0-0.02,0h-4.158
		c-0.021-0.001-0.043-0.001-0.064,0c-0.023-0.001-0.043-0.001-0.066,0C281.479,331.305,281.458,331.305,281.437,331.307z
		 M295.991,331.307c-0.383,0.073-0.649,0.562-0.594,1.087c0.054,0.528,0.407,0.895,0.791,0.822h4.158
		c0.383,0.007,0.698-0.415,0.703-0.942c0.006-0.526-0.3-0.959-0.684-0.967c-0.005,0-0.012,0-0.019,0h-4.158
		c-0.022-0.001-0.043-0.001-0.066,0c-0.021-0.001-0.042-0.001-0.065,0C296.035,331.305,296.013,331.305,295.991,331.307z
		 M278.166,334.17c-0.642,0-1.19,0.5-1.604,1.164c-0.413,0.661-0.748,1.511-1.018,2.535c-0.541,2.046-0.846,4.762-0.846,7.755
		s0.305,5.708,0.846,7.755c0.179,0.678,0.388,1.266,0.627,1.788h-0.78c-0.021,0-0.043,0-0.066,0c-0.021,0-0.042,0-0.064,0
		c-0.331,0.088-0.569,0.491-0.563,0.956v3.816c0,0.528,0.311,0.954,0.693,0.954h0.109c-0.061,0.31-0.109,0.618-0.109,0.956
		c0,2.096,1.25,3.816,2.773,3.816c1.05,0,1.955-0.833,2.425-2.028c0.47,1.196,1.375,2.028,2.425,2.028
		c1.524,0,2.773-1.72,2.773-3.816c0-0.338-0.048-0.646-0.109-0.956h11.307c-0.061,0.31-0.107,0.618-0.107,0.956
		c0,2.096,1.249,3.816,2.771,3.816c1.051,0,1.957-0.833,2.426-2.028c0.469,1.196,1.375,2.028,2.426,2.028
		c1.521,0,2.771-1.72,2.771-3.816c0-0.338-0.047-0.646-0.107-0.956h0.107c0.385,0,0.693-0.426,0.693-0.954v-3.816
		c0-0.528-0.311-0.956-0.693-0.956h-0.777c0.239-0.522,0.448-1.11,0.627-1.788c0.541-2.044,0.846-4.762,0.846-7.755
		s-0.305-5.709-0.846-7.755c-0.27-1.024-0.604-1.874-1.018-2.535c-0.412-0.663-0.962-1.164-1.604-1.164H278.166z M278.166,336.079
		h26.338c0.125,0,0.313,0.105,0.563,0.506c0.25,0.401,0.506,1.062,0.737,1.939c0.463,1.752,0.779,4.294,0.779,7.098
		c0,2.805-0.316,5.345-0.779,7.1c-0.231,0.875-0.487,1.538-0.737,1.937c-0.25,0.401-0.438,0.508-0.563,0.508h-26.338
		c-0.126,0-0.314-0.105-0.563-0.508c-0.251-0.401-0.506-1.062-0.737-1.937c-0.462-1.754-0.78-4.294-0.78-7.1
		c0-2.803,0.317-5.345,0.78-7.098c0.231-0.877,0.485-1.538,0.737-1.939C277.853,336.185,278.04,336.079,278.166,336.079z
		 M291.27,338.734c-0.03,0.007-0.058,0.016-0.087,0.028c-0.157,0.056-0.294,0.181-0.39,0.36c0,0-0.716,1.216-1.43,2.714
		c-0.357,0.749-0.715,1.552-0.996,2.356c-0.281,0.802-0.498,1.57-0.498,2.386c0,2.624,1.56,4.772,3.465,4.772
		c1.906,0,3.466-2.148,3.466-4.772c0-0.816-0.218-1.583-0.499-2.386s-0.639-1.607-0.997-2.356c-0.714-1.498-1.43-2.714-1.43-2.714
		C291.736,338.857,291.506,338.71,291.27,338.734z M291.334,341.358c0.26,0.471,0.402,0.682,0.802,1.522
		c0.336,0.705,0.671,1.464,0.909,2.146c0.239,0.684,0.369,1.314,0.369,1.552c0,1.591-0.924,2.862-2.08,2.862
		s-2.079-1.271-2.079-2.862c0-0.238,0.129-0.868,0.368-1.552c0.239-0.682,0.574-1.441,0.91-2.146
		C290.932,342.04,291.076,341.829,291.334,341.358z M276.086,357.075h2.08h26.338h2.079v1.91h-0.434h-3.313h-1.539h-3.313h-13.322
		h-3.313h-1.539h-3.314h-0.412V357.075z M277.06,360.894h2.21c0.133,0.29,0.282,0.589,0.282,0.954c0,1.065-0.613,1.908-1.386,1.908
		c-0.775,0-1.387-0.843-1.387-1.908C276.779,361.482,276.928,361.186,277.06,360.894z M281.912,360.894h2.21
		c0.133,0.29,0.282,0.589,0.282,0.954c0,1.065-0.613,1.908-1.386,1.908c-0.775,0-1.387-0.843-1.387-1.908
		C281.631,361.482,281.78,361.186,281.912,360.894z M298.546,360.894h2.21c0.133,0.29,0.282,0.589,0.282,0.954
		c0,1.065-0.613,1.908-1.386,1.908c-0.775,0-1.387-0.843-1.387-1.908C298.266,361.482,298.415,361.186,298.546,360.894z
		 M303.398,360.894h2.209c0.133,0.29,0.282,0.589,0.282,0.954c0,1.065-0.613,1.908-1.388,1.908c-0.773,0-1.386-0.843-1.386-1.908
		C303.117,361.482,303.266,361.186,303.398,360.894z"/>
</g>
</svg>
