<?xml version="1.0" encoding="utf-8"?>
<!-- Generator: Adobe Illustrator 16.0.0, SVG Export Plug-In . SVG Version: 6.00 Build 0)  -->
<!DOCTYPE svg PUBLIC "-//W3C//DTD SVG 1.1//EN" "http://www.w3.org/Graphics/SVG/1.1/DTD/svg11.dtd">
<svg version="1.1" id="Camada_1" xmlns="http://www.w3.org/2000/svg" xmlns:xlink="http://www.w3.org/1999/xlink" x="0px" y="0px"
	 width="100.954px" height="204px" viewBox="246.023 297.74 100.954 204" enable-background="new 246.023 297.74 100.954 204"
	 xml:space="preserve">
<rect x="246.023" y="400.74" fill="none" width="100.954" height="101"/>
<rect x="245.772" y="297.74" fill="none" width="101.457" height="101"/>
<g id="ARC_1_">
	<path fill="none" d="M232,278c0-0.276-0.225-0.5-0.502-0.5"/>
</g>
<g>
	<g id="LWPOLYLINE_6_">
		<path fill="#146432" d="M335.56,426.826v37.501c0,20.917-17.033,37.875-38.046,37.875c-21.012,0-38.045-16.958-38.045-37.875
			c0-20.92,17.033-37.875,38.045-37.875h37.67"/>
	</g>
	<g id="LWPOLYLINE_5_">
		<path fill="#8CBE28" d="M331.794,430.201v34.126c0,18.847-15.347,34.125-34.28,34.125c-18.931,0-34.278-15.278-34.278-34.125
			s15.347-34.126,34.278-34.126H331.794z"/>
	</g>
	<path fill="#FFFFFF" d="M318.014,452.164h-5.563h-32.238l18.901,31.145L318.014,452.164z M306.887,458.442l-7.785,12.814
		l-7.773-12.814H306.887z"/>
</g>
<g>
	<g id="ARC_3_">
		<path fill="none" d="M334.547,323.365c0-0.207-0.169-0.375-0.377-0.375"/>
	</g>
	<g id="LWPOLYLINE_8_">
		<path fill="#146432" d="M334.547,323.365v37.5c0,20.918-17.033,37.875-38.047,37.875c-21.012,0-38.045-16.958-38.045-37.875
			c0-20.917,17.033-37.875,38.045-37.875h37.67"/>
	</g>
	<g id="LWPOLYLINE_7_">
		<path fill="#8CBE28" d="M330.78,326.741v34.125c0,18.847-15.347,34.125-34.28,34.125c-18.931,0-34.278-15.278-34.278-34.125
			c0-18.847,15.347-34.125,34.278-34.125H330.78z"/>
	</g>
	<path fill="#FDFDFD" d="M297.516,334.106l-1.605,1.988c0,0-4.107,5.106-8.284,11.463c-2.089,3.178-4.237,6.648-5.843,10.007
		c-1.607,3.357-2.761,6.568-2.761,9.543c0,10.486,8.33,19.083,18.492,19.083c10.159,0,18.489-8.597,18.489-19.083
		c0-2.976-1.15-6.187-2.758-9.543s-3.756-6.83-5.844-10.007c-4.178-6.357-8.283-11.463-8.283-11.463L297.516,334.106z
		 M297.516,340.933c1.151,1.462,3.296,4.063,6.547,9.012c2.023,3.076,3.979,6.459,5.458,9.542c1.475,3.084,2.377,5.933,2.377,7.623
		c0,8.172-6.462,14.84-14.384,14.84c-7.919,0-14.383-6.668-14.383-14.84c0-1.69,0.9-4.538,2.376-7.623
		c1.476-3.083,3.436-6.464,5.459-9.542C294.217,344.996,296.361,342.394,297.516,340.933z M287.242,367.108
		c0,5.82,4.632,10.602,10.274,10.602v-4.244c-3.401,0-6.166-2.849-6.166-6.357H287.242L287.242,367.108z"/>
</g>
</svg>
