<?xml version="1.0" encoding="utf-8"?>
<!-- Generator: Adobe Illustrator 16.0.0, SVG Export Plug-In . SVG Version: 6.00 Build 0)  -->
<!DOCTYPE svg PUBLIC "-//W3C//DTD SVG 1.1//EN" "http://www.w3.org/Graphics/SVG/1.1/DTD/svg11.dtd">
<svg version="1.1" id="Camada_1" xmlns="http://www.w3.org/2000/svg" xmlns:xlink="http://www.w3.org/1999/xlink" x="0px" y="0px"
	 width="612px" height="792px" viewBox="0 0 612 792" enable-background="new 0 0 612 792" xml:space="preserve">
<g>
	<g id="LWPOLYLINE_6_">
		<path fill="#146432" d="M319.977,421.131v28.125c0,15.688-12.773,28.406-28.534,28.406c-15.759,0-28.534-12.719-28.534-28.406
			c0-15.689,12.774-28.406,28.534-28.406h28.253"/>
	</g>
	<g id="LWPOLYLINE_5_">
		<path fill="#8CBE28" d="M317.152,423.662v25.594c0,14.135-11.51,25.594-25.709,25.594c-14.198,0-25.708-11.459-25.708-25.594
			s11.51-25.594,25.708-25.594H317.152z"/>
	</g>
	<path fill="#FFFFFF" d="M306.817,440.135h-4.172h-24.179l14.176,23.357L306.817,440.135z M298.472,444.844l-5.838,9.609
		l-5.83-9.609H298.472z"/>
</g>
<g id="ARC_3_">
	<path fill="none" d="M319.977,320.881c0-0.155-0.125-0.281-0.281-0.281"/>
</g>
<g id="LWPOLYLINE_8_">
	<path fill="#146432" d="M319.977,320.881v28.125c0,15.688-12.775,28.406-28.535,28.406c-15.759,0-28.534-12.719-28.534-28.406
		c0-15.688,12.775-28.406,28.534-28.406h28.253"/>
</g>
<g id="LWPOLYLINE_7_">
	<path fill="#8CBE28" d="M317.152,323.413v25.594c0,14.135-11.51,25.594-25.71,25.594c-14.198,0-25.708-11.459-25.708-25.594
		c0-14.136,11.511-25.594,25.708-25.594H317.152z"/>
</g>
<rect x="240.449" y="293.5" fill="none" stroke="#E7E7E7" stroke-miterlimit="10" width="101.987" height="207.974"/>
<g id="ARC_1_">
	<path fill="none" d="M232,278c0-0.276-0.225-0.5-0.502-0.5"/>
</g>
<g>
	<path fill="#FFFFFF" d="M296.896,329.421l-0.721,0.86c-0.188,0.229-4.608,5.675-4.608,8.949c0,2.699,2.39,4.893,5.329,4.893
		c2.938,0,5.33-2.194,5.33-4.893c0-3.274-4.421-8.72-4.609-8.949L296.896,329.421z M286.681,337.755
		c-0.037,0.006-0.075,0.014-0.111,0.025c-0.196,0.037-0.371,0.133-0.5,0.271c-0.01,0.008-0.02,0.014-0.028,0.024
		c-1.203,0.971-3.089,1.327-4.247,1.327c-1.109,0-2.875-0.346-4.081-1.229c-0.186-0.269-0.535-0.415-0.889-0.369
		c-0.028,0.007-0.055,0.015-0.083,0.024c-0.12,0.021-0.232,0.063-0.333,0.123c-0.019,0.008-0.037,0.017-0.055,0.025
		c0,0.008,0,0.016,0,0.024c-0.019,0.008-0.037,0.016-0.056,0.025c0,0.008,0,0.017,0,0.025c-0.04,0.029-0.077,0.063-0.111,0.097
		c-1.206,0.918-3.034,1.255-4.164,1.255c-0.49-0.006-0.893,0.34-0.901,0.775c-0.007,0.435,0.386,0.792,0.876,0.797
		c0.008,0,0.017,0,0.025,0c1.371,0,3.29-0.337,4.886-1.376c1.596,1.04,3.516,1.376,4.886,1.376c1.366,0,3.292-0.32,4.885-1.351
		c1.174,0.749,2.599,1.137,3.83,1.278c-0.165-0.52-0.274-1.056-0.277-1.623c-0.89-0.156-1.851-0.469-2.638-1.007
		C287.46,337.935,287.083,337.723,286.681,337.755z M306.085,337.829c-0.207,0.032-0.394,0.128-0.528,0.27
		c-0.581,0.462-1.28,0.774-1.999,0.984c0.001,0.05,0,0.096,0,0.146c0,0.531-0.08,1.034-0.222,1.524
		c0.981-0.204,1.997-0.583,2.888-1.155c1.595,1.039,3.515,1.376,4.885,1.376c0.49,0.006,0.893-0.341,0.899-0.776
		c0.007-0.434-0.383-0.791-0.874-0.798c-0.008,0-0.017,0-0.024,0c-1.166,0-3.072-0.363-4.275-1.351
		c-0.072-0.062-0.157-0.112-0.248-0.147c-0.02-0.008-0.037-0.019-0.057-0.025C306.388,337.829,306.234,337.812,306.085,337.829z
		 M286.736,346.409c-0.056,0.004-0.112,0.011-0.167,0.024c-0.089,0.021-0.173,0.055-0.25,0.099
		c-0.018,0.008-0.038,0.016-0.056,0.024c-0.122,0.06-0.227,0.145-0.305,0.247c-1.205,0.918-3.035,1.253-4.165,1.253
		c-1.118,0-2.929-0.328-4.136-1.229c-0.041-0.046-0.086-0.087-0.138-0.122c-0.009-0.017-0.019-0.034-0.028-0.049
		c-0.06-0.041-0.124-0.073-0.194-0.099c-0.009-0.009-0.019-0.017-0.028-0.026c-0.018,0-0.037,0-0.056,0
		c-0.008-0.008-0.019-0.016-0.026-0.023c-0.019,0-0.038,0-0.057,0c-0.009-0.009-0.019-0.016-0.027-0.025c-0.019,0-0.037,0-0.057,0
		c-0.008,0-0.019,0-0.027,0c-0.092-0.013-0.186-0.013-0.277,0c-0.12,0.021-0.233,0.062-0.333,0.122
		c-0.02,0.008-0.038,0.016-0.056,0.026c0,0.007,0,0.016,0,0.023c-0.019,0.008-0.038,0.016-0.057,0.026c0,0.008,0,0.016,0,0.025
		c-0.039,0.029-0.077,0.063-0.11,0.097c-1.202,0.918-3.031,1.253-4.162,1.253c-0.489-0.005-0.893,0.342-0.9,0.776
		c-0.007,0.435,0.385,0.79,0.876,0.796c0.008,0,0.017,0,0.024,0c1.373,0,3.292-0.337,4.886-1.375
		c1.596,1.039,3.516,1.375,4.886,1.375c1.372,0,3.291-0.337,4.885-1.375c1.596,1.039,3.515,1.375,4.886,1.375
		c1.372,0,3.291-0.337,4.885-1.375c1.596,1.039,3.515,1.375,4.885,1.375c1.373,0,3.29-0.337,4.887-1.375
		c1.595,1.039,3.515,1.375,4.885,1.375c0.49,0.007,0.893-0.34,0.899-0.775c0.007-0.435-0.383-0.792-0.874-0.798
		c-0.008,0-0.017,0-0.024,0c-1.077,0-2.794-0.305-3.996-1.131c-0.154-0.357-0.577-0.564-0.999-0.492
		c-0.109,0.023-0.214,0.065-0.307,0.123c-0.123,0.06-0.227,0.144-0.306,0.246c-1.205,0.918-3.035,1.254-4.165,1.254
		c-1.077,0-2.794-0.305-3.997-1.131c-0.184-0.402-0.703-0.596-1.158-0.431c-0.031,0.01-0.062,0.023-0.091,0.038
		c-0.01,0.008-0.02,0.016-0.029,0.024c-0.01,0-0.019,0-0.027,0c-0.084,0.046-0.159,0.104-0.222,0.173
		c-0.009,0.008-0.019,0.017-0.028,0.024c-0.019,0.016-0.038,0.031-0.055,0.049c-1.204,0.918-3.035,1.253-4.164,1.253
		c-1.078,0-2.795-0.303-3.997-1.131c0-0.008,0-0.016,0-0.024C287.432,346.601,287.102,346.405,286.736,346.409z M286.237,351.449
		l-0.722,0.861c-0.188,0.229-4.608,5.675-4.608,8.948c0,2.698,2.389,4.893,5.33,4.893c2.939,0,5.33-2.195,5.33-4.893
		c0-3.273-4.422-8.719-4.609-8.948L286.237,351.449z M306.279,355.063c-0.056,0.003-0.112,0.012-0.168,0.024
		c-0.088,0.022-0.171,0.055-0.248,0.099c-0.019,0.008-0.038,0.016-0.057,0.024c-0.123,0.061-0.227,0.145-0.306,0.247
		c-1.204,0.918-3.035,1.253-4.164,1.253c-1.157,0-3.043-0.358-4.247-1.327c-0.01-0.01-0.02-0.016-0.028-0.025
		c-0.074-0.061-0.158-0.112-0.25-0.148c-0.019-0.008-0.037-0.018-0.057-0.023c-0.14-0.049-0.293-0.067-0.443-0.049
		c-0.18,0.029-0.344,0.106-0.473,0.221c-0.01,0.009-0.019,0.017-0.027,0.026c-0.029,0.022-0.057,0.047-0.083,0.074
		c-1.223,0.933-2.993,1.252-4.164,1.252c-0.035,0-0.076,0.001-0.112,0c0.271,0.512,0.507,1.026,0.722,1.549
		c1.333-0.093,2.979-0.472,4.303-1.328c1.591,1.023,3.497,1.351,4.858,1.351c1.373,0,3.29-0.336,4.887-1.375
		c1.595,1.04,3.515,1.375,4.885,1.375c0.49,0.008,0.893-0.339,0.899-0.775c0.007-0.433-0.383-0.791-0.874-0.797
		c-0.008,0-0.017,0-0.024,0c-1.077,0-2.794-0.305-3.996-1.131c0-0.007,0-0.016,0-0.023
		C306.975,355.255,306.645,355.06,306.279,355.063z M276.826,355.112c-0.028,0.006-0.055,0.014-0.083,0.025
		c-0.169,0.033-0.323,0.11-0.444,0.221c-0.01,0.009-0.02,0.015-0.027,0.025c-1.203,0.971-3.09,1.327-4.248,1.327
		c-0.489-0.007-0.893,0.342-0.9,0.776c-0.007,0.435,0.385,0.791,0.876,0.796c0.008,0,0.017,0,0.024,0
		c1.37,0,3.293-0.319,4.886-1.352c1.049,0.671,2.287,1.055,3.416,1.23c0.21-0.502,0.459-1.007,0.723-1.5
		c-1.07-0.111-2.355-0.465-3.332-1.181C277.529,355.21,277.18,355.065,276.826,355.112z"/>
</g>
</svg>
