<?xml version="1.0" encoding="utf-8"?>
<!-- Generator: Adobe Illustrator 16.0.0, SVG Export Plug-In . SVG Version: 6.00 Build 0)  -->
<!DOCTYPE svg PUBLIC "-//W3C//DTD SVG 1.1//EN" "http://www.w3.org/Graphics/SVG/1.1/DTD/svg11.dtd">
<svg version="1.1" id="Camada_1" xmlns="http://www.w3.org/2000/svg" xmlns:xlink="http://www.w3.org/1999/xlink" x="0px" y="0px"
	 width="612px" height="792px" viewBox="0 0 612 792" enable-background="new 0 0 612 792" xml:space="preserve">
<g>
	<g id="LWPOLYLINE_6_">
		<path fill="#146432" d="M319.977,421.131v28.125c0,15.688-12.773,28.406-28.534,28.406c-15.759,0-28.534-12.719-28.534-28.406
			c0-15.689,12.774-28.406,28.534-28.406h28.253"/>
	</g>
	<g id="LWPOLYLINE_5_">
		<path fill="#8CBE28" d="M317.152,423.662v25.594c0,14.135-11.51,25.594-25.709,25.594c-14.198,0-25.708-11.459-25.708-25.594
			s11.51-25.594,25.708-25.594H317.152z"/>
	</g>
	<path fill="#FFFFFF" d="M306.817,440.135h-4.172h-24.179l14.176,23.357L306.817,440.135z M298.472,444.844l-5.838,9.609
		l-5.83-9.609H298.472z"/>
</g>
<g id="ARC_3_">
	<path fill="none" d="M319.977,320.881c0-0.155-0.125-0.281-0.281-0.281"/>
</g>
<g id="LWPOLYLINE_8_">
	<path fill="#146432" d="M319.977,320.881v28.125c0,15.688-12.775,28.406-28.535,28.406c-15.759,0-28.534-12.719-28.534-28.406
		c0-15.688,12.775-28.406,28.534-28.406h28.253"/>
</g>
<g id="LWPOLYLINE_7_">
	<path fill="#8CBE28" d="M317.152,323.413v25.594c0,14.135-11.51,25.594-25.71,25.594c-14.198,0-25.708-11.459-25.708-25.594
		c0-14.136,11.511-25.594,25.708-25.594H317.152z"/>
</g>
<rect x="240.449" y="293.5" fill="none" stroke="#E7E7E7" stroke-miterlimit="10" width="101.987" height="207.974"/>
<g id="ARC_1_">
	<path fill="none" d="M232,278c0-0.276-0.225-0.5-0.502-0.5"/>
</g>
<g>
	<g>
		<path fill="#FFFFFF" d="M282.829,327.988c-4.88,0-8.851,3.39-8.851,7.557v0.129c0,2.302,0.507,4.553,1.509,6.692l1.246,2.66
			c-0.125,0.156-0.221,0.332-0.283,0.521l-3.715,11.63c-0.079,0.25-0.119,0.507-0.119,0.763v4.341c0,0.958,0.916,1.741,2.042,1.741
			h34.034c1.129,0,2.045-0.783,2.045-1.741v-4.341c0-0.258-0.041-0.513-0.121-0.763l-3.714-11.63
			c-0.242-0.756-1.053-1.285-1.971-1.285h-1.004v-9.88c0-0.96-0.917-1.744-2.041-1.744c-1.128,0-2.043,0.783-2.043,1.744v0.582
			h-4.084v-1.743c0-0.959-0.918-1.745-2.042-1.745h-2.758c-1.621-2.157-4.437-3.487-7.453-3.487h-0.678V327.988z M282.829,329.151
			h0.68c2.257,0,4.378,0.886,5.789,2.354c-0.965,0.14-1.707,0.853-1.707,1.714v1.743h-4.084v-0.58c0-0.96-0.917-1.744-2.043-1.744
			c-1.125,0-2.041,0.783-2.041,1.744v9.88h-1.002c-0.189,0-0.37,0.027-0.546,0.069l-1.124-2.398c-0.936-2-1.412-4.104-1.412-6.26
			v-0.13C275.339,332.02,278.698,329.151,282.829,329.151z M289.635,332.639h4.083c0.375,0,0.682,0.263,0.682,0.582v1.742v1.163
			v2.359c0,0.267-0.074,0.535-0.219,0.779l-0.693,1.191c-0.115,0.197-0.346,0.319-0.613,0.319h-2.396
			c-0.264,0-0.496-0.12-0.612-0.319l-0.49-0.843h2.981c0.376,0,0.683-0.26,0.683-0.582c0-0.321-0.306-0.582-0.683-0.582h-3.403
			v-2.325v-1.163v-1.742C288.954,332.9,289.261,332.639,289.635,332.639z M281.465,333.8c0.376,0,0.682,0.261,0.682,0.582v10.461
			c0,0.322,0.306,0.581,0.682,0.581h17.695c0.377,0,0.685-0.259,0.685-0.581v-10.461c0-0.32,0.304-0.582,0.682-0.582
			c0.374,0,0.678,0.262,0.678,0.582v10.461c0,0.322,0.305,0.581,0.682,0.581h1.684c0.306,0,0.575,0.176,0.655,0.43l3.576,11.196
			h-34.978l3.575-11.196c0.082-0.253,0.352-0.43,0.657-0.43h1.683c0.376,0,0.681-0.259,0.681-0.581v-10.461
			C280.785,334.062,281.09,333.8,281.465,333.8z M283.509,336.125h4.084v2.36c0,0.448,0.121,0.894,0.358,1.295l0.696,1.192
			c0.346,0.593,1.047,0.965,1.83,0.965h0.517v0.582c0,0.32,0.305,0.581,0.68,0.581c0.377,0,0.682-0.26,0.682-0.581v-0.582h0.517
			c0.783,0,1.482-0.372,1.833-0.965l0.693-1.192c0.238-0.401,0.36-0.847,0.36-1.295v-2.36h4.084v8.138h-16.337V336.125z
			 M281.403,346.587c-0.324,0-0.603,0.196-0.666,0.467l-1.918,8.137c-0.039,0.171,0.011,0.348,0.141,0.482
			c0.128,0.137,0.323,0.212,0.527,0.212h24.379c0.205,0,0.399-0.075,0.527-0.212c0.13-0.134,0.182-0.311,0.141-0.482l-1.917-8.138
			c-0.063-0.27-0.344-0.467-0.666-0.467L281.403,346.587L281.403,346.587z M281.96,347.749h19.432l0.548,2.337
			c-0.019-0.002-0.035-0.01-0.054-0.01c-0.377,0-0.682,0.26-0.682,0.582v1.161c0,0.322,0.305,0.582,0.682,0.582
			c0.227,0,0.418-0.102,0.541-0.247l0.606,2.571h-22.718l0.607-2.571c0.123,0.146,0.314,0.247,0.541,0.247
			c0.377,0,0.682-0.26,0.682-0.582v-1.161c0-0.322-0.306-0.582-0.682-0.582c-0.019,0-0.034,0.008-0.054,0.01L281.96,347.749z
			 M284.87,350.076c-0.377,0-0.68,0.26-0.68,0.582v1.161c0,0.322,0.303,0.582,0.68,0.582c0.375,0,0.68-0.26,0.68-0.582v-1.161
			C285.55,350.334,285.245,350.076,284.87,350.076z M288.271,350.076c-0.376,0-0.68,0.26-0.68,0.582v1.161
			c0,0.322,0.304,0.582,0.68,0.582c0.377,0,0.682-0.26,0.682-0.582v-1.161C288.954,350.334,288.65,350.076,288.271,350.076z
			 M291.677,350.076c-0.376,0-0.68,0.26-0.68,0.582v1.161c0,0.322,0.304,0.582,0.68,0.582s0.682-0.26,0.682-0.582v-1.161
			C292.357,350.334,292.053,350.076,291.677,350.076z M295.079,350.076c-0.375,0-0.681,0.26-0.681,0.582v1.161
			c0,0.322,0.307,0.582,0.681,0.582c0.376,0,0.682-0.26,0.682-0.582v-1.161C295.761,350.334,295.456,350.076,295.079,350.076z
			 M298.486,350.076c-0.376,0-0.684,0.26-0.684,0.582v1.161c0,0.322,0.308,0.582,0.684,0.582s0.679-0.26,0.679-0.582v-1.161
			C299.165,350.334,298.86,350.076,298.486,350.076z M273.978,358.209h35.397v4.071c0,0.318-0.306,0.579-0.681,0.579h-34.036
			c-0.376,0-0.68-0.26-0.68-0.579V358.209z M291.677,359.373c-0.751,0-1.362,0.521-1.362,1.163c0,0.644,0.611,1.163,1.362,1.163
			s1.364-0.519,1.364-1.163C293.04,359.894,292.428,359.373,291.677,359.373z"/>
	</g>
</g>
</svg>
