<?xml version="1.0" encoding="utf-8"?>
<!-- Generator: Adobe Illustrator 16.0.0, SVG Export Plug-In . SVG Version: 6.00 Build 0)  -->
<!DOCTYPE svg PUBLIC "-//W3C//DTD SVG 1.1//EN" "http://www.w3.org/Graphics/SVG/1.1/DTD/svg11.dtd">
<svg version="1.1" id="Camada_1" xmlns="http://www.w3.org/2000/svg" xmlns:xlink="http://www.w3.org/1999/xlink" x="0px" y="0px"
	 width="612px" height="792px" viewBox="0 0 612 792" enable-background="new 0 0 612 792" xml:space="preserve">
<g>
	<g id="LWPOLYLINE_6_">
		<path fill="#146432" d="M319.977,421.131v28.125c0,15.688-12.773,28.406-28.534,28.406c-15.759,0-28.534-12.719-28.534-28.406
			c0-15.689,12.774-28.406,28.534-28.406h28.253"/>
	</g>
	<g id="LWPOLYLINE_5_">
		<path fill="#8CBE28" d="M317.152,423.662v25.594c0,14.135-11.51,25.594-25.709,25.594c-14.198,0-25.708-11.459-25.708-25.594
			s11.51-25.594,25.708-25.594H317.152z"/>
	</g>
	<path fill="#FFFFFF" d="M306.817,440.135h-4.172h-24.179l14.176,23.357L306.817,440.135z M298.472,444.844l-5.838,9.609
		l-5.83-9.609H298.472z"/>
</g>
<g id="ARC_3_">
	<path fill="none" d="M319.977,320.881c0-0.155-0.125-0.281-0.281-0.281"/>
</g>
<g id="LWPOLYLINE_8_">
	<path fill="#146432" d="M319.977,320.881v28.125c0,15.688-12.775,28.406-28.535,28.406c-15.759,0-28.534-12.719-28.534-28.406
		c0-15.688,12.775-28.406,28.534-28.406h28.253"/>
</g>
<g id="LWPOLYLINE_7_">
	<path fill="#8CBE28" d="M317.152,323.413v25.594c0,14.135-11.51,25.594-25.71,25.594c-14.198,0-25.708-11.459-25.708-25.594
		c0-14.136,11.511-25.594,25.708-25.594H317.152z"/>
</g>
<rect x="240.449" y="293.5" fill="none" stroke="#E7E7E7" stroke-miterlimit="10" width="101.987" height="207.974"/>
<g id="ARC_1_">
	<path fill="none" d="M232,278c0-0.276-0.225-0.5-0.502-0.5"/>
</g>
<path fill="#FDFDFD" d="M292.632,337.398l-1.045,1.24c0,0-2.672,3.187-5.39,7.153c-1.359,1.983-2.757,4.149-3.802,6.245
	c-1.046,2.095-1.797,4.098-1.797,5.955c0,6.544,5.421,11.909,12.033,11.909c6.611,0,12.031-5.365,12.031-11.909
	c0-1.857-0.748-3.86-1.795-5.955c-1.045-2.095-2.443-4.261-3.802-6.245c-2.718-3.967-5.39-7.153-5.39-7.153L292.632,337.398z
	 M292.632,341.658c0.75,0.912,2.146,2.536,4.261,5.624c1.316,1.92,2.59,4.03,3.551,5.955c0.959,1.924,1.547,3.701,1.547,4.756
	c0,5.1-4.206,9.261-9.359,9.261s-9.359-4.161-9.359-9.261c0-1.055,0.585-2.832,1.546-4.756c0.96-1.925,2.236-4.034,3.552-5.955
	C290.486,344.194,291.881,342.57,292.632,341.658z M285.947,357.992c0,3.632,3.014,6.616,6.685,6.616v-2.648
	c-2.212,0-4.012-1.778-4.012-3.967H285.947L285.947,357.992z"/>
<g>
	<g id="SPLINE">
		<path fill="#FFFFFF" d="M282.126,327.479c-0.132,0.026-0.256,0.105-0.356,0.229c-0.867,0.969-2.375,1.349-3.26,1.349
			c-0.405,0-0.767-0.086-1.192-0.086c-0.37-0.007-0.673,0.398-0.678,0.906c-0.006,0.506,0.29,0.924,0.66,0.93
			c0.005,0,0.013,0,0.018,0c0.245,0,0.659,0.085,1.191,0.085c1.008,0,2.469-0.411,3.68-1.492c1.215,1.094,2.67,1.492,3.681,1.492
			c1.006,0,2.468-0.411,3.678-1.492c1.215,1.094,2.67,1.492,3.68,1.492c1.007,0,2.468-0.411,3.68-1.492
			c1.215,1.094,2.669,1.492,3.679,1.492c1.009,0,2.47-0.411,3.68-1.492c1.216,1.094,2.669,1.492,3.68,1.492
			c0.532,0,1.029-0.105,1.462-0.343c0.348-0.19,0.516-0.729,0.377-1.206c-0.138-0.475-0.531-0.707-0.879-0.517
			c-0.235,0.13-0.558,0.23-0.96,0.23c-0.886,0-2.373-0.38-3.24-1.349c-0.25-0.285-0.611-0.285-0.858,0
			c-0.87,0.968-2.377,1.349-3.263,1.349c-0.884,0-2.371-0.38-3.24-1.349c-0.248-0.285-0.608-0.285-0.857,0
			c-0.87,0.968-2.378,1.349-3.263,1.349s-2.373-0.38-3.241-1.349c-0.248-0.285-0.608-0.285-0.857,0
			c-0.868,0.968-2.376,1.349-3.261,1.349c-0.885,0-2.373-0.38-3.242-1.349c-0.121-0.147-0.277-0.228-0.438-0.229
			C282.168,327.478,282.147,327.478,282.126,327.479z"/>
	</g>
	<g id="SPLINE_1_">
		<path fill="#FFFFFF" d="M282.126,332.585c-0.132,0.027-0.256,0.107-0.356,0.23c-0.867,0.97-2.375,1.349-3.26,1.349
			c-0.405,0-0.767-0.085-1.192-0.085c-0.37-0.007-0.673,0.398-0.678,0.905c-0.006,0.506,0.29,0.924,0.66,0.93
			c0.005,0,0.013,0,0.018,0c0.245,0,0.659,0.087,1.191,0.087c1.008,0,2.469-0.41,3.68-1.493c1.215,1.094,2.67,1.493,3.681,1.493
			c1.006,0,2.468-0.41,3.678-1.493c1.215,1.094,2.67,1.493,3.68,1.493c1.007,0,2.468-0.41,3.68-1.493
			c1.215,1.094,2.669,1.493,3.679,1.493c1.009,0,2.47-0.41,3.68-1.493c1.216,1.094,2.669,1.493,3.68,1.493
			c0.532,0,1.029-0.105,1.462-0.345c0.348-0.189,0.516-0.73,0.377-1.204c-0.138-0.476-0.531-0.707-0.879-0.517
			c-0.235,0.13-0.558,0.229-0.96,0.229c-0.886,0-2.373-0.379-3.24-1.348c-0.25-0.285-0.611-0.285-0.858,0
			c-0.87,0.969-2.377,1.348-3.263,1.348c-0.884,0-2.371-0.379-3.24-1.348c-0.248-0.285-0.608-0.285-0.857,0
			c-0.87,0.969-2.378,1.348-3.263,1.348s-2.373-0.379-3.241-1.348c-0.248-0.285-0.608-0.285-0.857,0
			c-0.868,0.969-2.376,1.348-3.261,1.348c-0.885,0-2.373-0.379-3.242-1.348c-0.121-0.147-0.277-0.228-0.438-0.229
			C282.168,332.584,282.147,332.584,282.126,332.585z"/>
	</g>
</g>
</svg>
