<?xml version="1.0" encoding="utf-8"?>
<!-- Generator: Adobe Illustrator 16.0.0, SVG Export Plug-In . SVG Version: 6.00 Build 0)  -->
<!DOCTYPE svg PUBLIC "-//W3C//DTD SVG 1.1//EN" "http://www.w3.org/Graphics/SVG/1.1/DTD/svg11.dtd">
<svg version="1.1" id="Camada_1" xmlns="http://www.w3.org/2000/svg" xmlns:xlink="http://www.w3.org/1999/xlink" x="0px" y="0px"
	 width="166.5px" height="57.667px" viewBox="-63.417 0 166.5 57.667" enable-background="new -63.417 0 166.5 57.667"
	 xml:space="preserve">
<g id="LWPOLYLINE">
	<path fill="#0C3647" d="M-56.539,56.837H96.206c3.799,0,6.878-3.353,6.878-7.489V7.491c0-4.137-3.079-7.491-6.878-7.491H-56.539
		c-3.798,0-6.877,3.354-6.877,7.491v41.857C-63.417,53.485-60.337,56.837-56.539,56.837z"/>
</g>
<g id="SPLINE">
	<polyline fill="#FEFFFF" points="17.436,26.529 12.769,26.529 12.076,28.098 12.076,28.098 11.972,28.385 11.939,28.578 
		12.03,28.801 12.373,28.975 12.465,29 12.465,29.103 12.465,29.382 12.465,29.512 12.344,29.512 8.811,29.512 8.69,29.512 
		8.69,29.382 8.69,29.103 8.69,28.994 8.787,28.973 9.037,28.887 9.207,28.767 9.362,28.541 9.364,28.542 9.554,28.146 
		9.554,28.145 13.482,19.213 13.616,18.848 13.616,18.848 13.656,18.586 13.574,18.337 13.574,18.337 13.284,18.15 13.202,18.12 
		13.202,18.026 13.202,17.747 13.202,17.614 13.323,17.614 17.11,17.614 17.23,17.614 17.23,17.747 17.23,18.026 17.23,18.125 
		17.143,18.152 16.85,18.316 16.848,18.316 16.769,18.529 16.802,18.758 16.901,19.03 16.903,19.032 20.967,27.989 21.204,28.456 
		21.396,28.732 21.396,28.732 21.592,28.879 21.859,28.973 21.958,28.992 21.958,29.103 21.958,29.382 21.958,29.512 21.837,29.512 
		17.895,29.512 17.773,29.512 17.773,29.382 17.773,29.103 17.773,28.991 17.875,28.971 18.198,28.827 18.289,28.573 18.254,28.389 
		18.143,28.098 18.143,28.098 17.436,26.529 	"/>
</g>
<g id="SPLINE_1_">
	<polyline fill="#0C3647" points="16.655,24.68 15.128,21.02 13.572,24.68 16.655,24.68 	"/>
</g>
<g id="SPLINE_2_">
	<polyline fill="#FEFFFF" points="25.712,27.33 32.148,27.33 32.328,27.305 32.328,27.305 32.437,27.243 32.437,27.243 
		32.526,27.116 32.604,26.887 32.625,26.79 32.721,26.79 32.978,26.79 33.097,26.79 33.097,26.92 33.097,29.922 33.097,30.055 
		32.978,30.055 32.721,30.055 32.625,30.055 32.604,29.956 32.526,29.727 32.437,29.6 32.437,29.6 32.328,29.538 32.328,29.538 
		32.148,29.512 22.757,29.512 22.638,29.512 22.638,29.382 22.638,29.103 22.638,29.002 22.725,28.975 22.936,28.886 23.053,28.793 
		23.053,28.793 23.109,28.676 23.131,28.479 23.131,18.648 23.109,18.453 23.053,18.333 23.053,18.333 22.936,18.239 22.936,18.239 
		22.725,18.154 22.638,18.127 22.638,18.026 22.638,17.747 22.638,17.614 22.757,17.614 26.089,17.614 26.21,17.614 26.21,17.747 
		26.21,18.026 26.21,18.127 26.119,18.154 25.909,18.235 25.795,18.327 25.795,18.327 25.736,18.451 25.736,18.451 25.712,18.648 
		25.712,27.33 	"/>
</g>
<g id="SPLINE_3_">
	<polyline fill="#FEFFFF" points="39.788,17.405 41.133,17.509 42.334,17.825 43.391,18.35 44.301,19.084 44.301,19.084 
		45.076,20.031 45.627,21.107 45.963,22.309 46.072,23.637 46.019,24.474 45.859,25.287 45.594,26.073 45.225,26.829 44.777,27.507 
		44.262,28.094 43.679,28.592 43.034,29 42.325,29.316 41.545,29.541 40.708,29.678 39.803,29.722 38.466,29.617 37.277,29.304 
		36.219,28.778 35.313,28.042 34.524,27.054 33.951,25.885 33.644,24.75 33.542,23.558 33.595,22.684 33.751,21.849 34.016,21.05 
		34.382,20.291 34.382,20.291 34.822,19.625 35.325,19.046 35.9,18.555 36.544,18.15 37.254,17.833 38.032,17.605 38.874,17.461 
		39.788,17.405 39.788,17.405 	"/>
</g>
<g id="SPLINE_4_">
	<polyline fill="#0F3647" points="39.796,19.641 39.083,19.701 38.431,19.88 37.848,20.179 37.327,20.599 37.323,20.599 
		36.813,21.206 36.447,21.901 36.23,22.688 36.154,23.564 36.23,24.439 36.447,25.223 36.813,25.921 37.323,26.529 37.327,26.529 
		37.848,26.947 38.439,27.247 39.09,27.427 39.813,27.487 40.532,27.427 41.187,27.247 41.768,26.947 42.288,26.529 42.806,25.897 
		43.186,25.136 43.391,24.389 43.458,23.616 43.384,22.705 43.167,21.9 42.802,21.199 42.292,20.599 42.292,20.599 41.761,20.186 
		41.172,19.888 40.517,19.706 39.796,19.64 39.796,19.641 	"/>
</g>
<g id="SPLINE_5_">
	<polyline fill="#FEFFFF" points="50.581,24.401 50.581,27.33 57.316,27.33 57.487,27.306 57.487,27.305 57.595,27.243 
		57.595,27.243 57.683,27.116 57.683,27.116 57.762,26.887 57.785,26.79 57.878,26.79 58.134,26.79 58.255,26.79 58.255,26.92 
		58.255,29.922 58.255,30.055 58.134,30.055 57.878,30.055 57.785,30.055 57.762,29.956 57.683,29.727 57.683,29.729 57.595,29.6 
		57.595,29.6 57.487,29.538 57.487,29.538 57.316,29.512 47.625,29.512 47.504,29.512 47.504,29.382 47.504,29.103 47.504,29.002 
		47.592,28.975 47.807,28.886 47.919,28.793 47.919,28.793 47.979,28.676 47.999,28.479 47.999,18.648 47.979,18.453 47.919,18.333 
		47.919,18.333 47.803,18.239 47.803,18.239 47.592,18.154 47.504,18.127 47.504,18.026 47.504,17.747 47.504,17.614 47.625,17.614 
		57.122,17.614 57.292,17.591 57.292,17.591 57.404,17.527 57.404,17.527 57.49,17.398 57.49,17.398 57.57,17.171 57.592,17.074 
		57.686,17.074 57.94,17.074 58.064,17.074 58.064,17.205 58.064,20.206 58.064,20.338 57.94,20.338 57.686,20.338 57.592,20.338 
		57.57,20.241 57.49,20.015 57.49,20.015 57.404,19.883 57.404,19.883 57.295,19.822 57.295,19.822 57.125,19.797 50.581,19.797 
		50.581,22.29 54.785,22.29 54.955,22.265 54.955,22.265 55.064,22.203 55.064,22.203 55.151,22.076 55.227,21.845 55.253,21.748 
		55.343,21.748 55.601,21.748 55.725,21.748 55.725,21.88 55.725,24.811 55.725,24.943 55.601,24.943 55.343,24.943 55.253,24.943 
		55.231,24.846 55.151,24.621 55.061,24.49 55.061,24.49 54.955,24.426 54.785,24.401 50.581,24.401 	"/>
</g>
<g id="SPLINE_6_">
	<polyline fill="#FEFFFF" points="62.545,21.74 62.545,28.479 62.567,28.676 62.626,28.793 62.626,28.793 62.74,28.886 
		62.955,28.975 63.042,29.002 63.042,29.103 63.042,29.382 63.042,29.512 62.922,29.512 59.796,29.512 59.677,29.512 59.677,29.382 
		59.677,29.103 59.677,29.002 59.764,28.975 59.979,28.886 60.094,28.793 60.094,28.793 60.151,28.676 60.17,28.479 60.17,18.639 
		60.151,18.451 60.151,18.451 60.094,18.333 60.094,18.333 59.975,18.239 59.975,18.239 59.767,18.154 59.677,18.127 59.677,18.026 
		59.677,17.747 59.677,17.614 59.796,17.614 63.419,17.614 63.542,17.614 63.542,17.747 63.542,18.026 63.542,18.129 63.449,18.154 
		63.256,18.258 63.26,18.258 63.208,18.417 63.248,18.572 63.389,18.777 69.093,25.208 69.093,18.639 69.075,18.451 69.075,18.451 
		69.017,18.333 69.017,18.333 68.899,18.239 68.688,18.154 68.6,18.127 68.6,18.026 68.6,17.747 68.6,17.614 68.719,17.614 
		71.845,17.614 71.965,17.614 71.965,17.747 71.965,18.026 71.965,18.127 71.875,18.154 71.667,18.239 71.549,18.333 71.549,18.333 
		71.491,18.451 71.491,18.451 71.469,18.639 71.469,28.479 71.491,28.676 71.549,28.793 71.549,28.793 71.664,28.886 71.877,28.975 
		71.965,29.002 71.965,29.103 71.965,29.382 71.965,29.512 71.845,29.512 68.486,29.512 68.361,29.512 68.361,29.382 68.361,29.103 
		68.361,28.996 68.46,28.973 68.645,28.879 68.692,28.735 68.62,28.578 68.347,28.231 62.545,21.74 	"/>
</g>
<g id="SPLINE_7_">
	<path fill="#FEFFFF" d="M83.075,25.328h-2.517c0,0-0.068,0-0.126,0.006c-0.055,0.017-0.055,0.017-0.096,0.031
		c-0.036,0.021-0.063,0.047-0.063,0.047s-0.029,0.029-0.059,0.071c-0.024,0.055-0.024,0.055-0.055,0.117
		c-0.025,0.078-0.051,0.172-0.051,0.172l-0.023,0.096c0,0,0,0-0.094,0c-0.255,0-0.255,0-0.255,0h-0.123c0,0,0,0,0-0.134
		c0-2.703,0-2.703,0-2.703V22.9c0,0,0,0,0.123,0c0.255,0,0.255,0,0.255,0h0.094c0,0,0,0,0.023,0.096c0,0,0,0,0.025,0.097
		c0.025,0.08,0.056,0.143,0.056,0.143c0.024,0.055,0.053,0.096,0.081,0.123c0,0,0,0,0.026,0.025c0.036,0.019,0.08,0.034,0.08,0.034
		c0.05,0.016,0.108,0.022,0.181,0.022c0,0,0,0,5.059,0c0.12,0,0.12,0,0.12,0v0.134c0,0,0,0,0,0.277c0,0.101,0,0.101,0,0.101
		l-0.09,0.026c0,0-0.081,0.025-0.149,0.054c-0.06,0.031-0.06,0.031-0.06,0.031c-0.048,0.029-0.091,0.063-0.117,0.096
		c0,0,0,0-0.026,0.032c-0.018,0.039-0.031,0.087-0.031,0.087c-0.015,0.054-0.022,0.121-0.022,0.196c0,0,0,0,0,2.383c0,0,0,0,0,0.078
		c0.007,0.066,0.022,0.12,0.022,0.12s0.014,0.048,0.028,0.087c0.025,0.03,0.025,0.03,0.053,0.062c0.039,0.032,0.088,0.06,0.088,0.06
		c0.058,0.032,0.13,0.062,0.218,0.088c0,0,0,0,0.087,0.026c0,0.102,0,0.102,0,0.102v0.209c0,0,0,0,0,0.075
		c-0.062,0.037-0.062,0.037-0.062,0.037c-1.021,0.64-2.028,1.119-3.021,1.438c0,0-0.991,0.323-1.974,0.481c-0.959,0-0.959,0-1.835,0
		c-0.796-0.113-1.512-0.34-1.512-0.34c-0.716-0.229-1.354-0.57-1.908-1.027c-0.004,0-0.004,0-0.702-0.575
		c-0.527-0.688-0.879-1.491-0.879-1.491c-0.352-0.798-0.526-1.71-0.526-2.731c0,0,0-0.949,0.156-1.807
		c0.311-0.759,0.311-0.759,0.623-1.519c0.471-0.664,1.094-1.227,1.094-1.227c0.591-0.534,1.281-0.935,2.064-1.202
		c0,0,0.78-0.266,1.654-0.399c0.975,0,0.975,0,1.279,0c0.3,0.016,0.594,0.048,0.594,0.048c0.293,0.03,0.575,0.076,0.85,0.138
		c0,0,0.273,0.062,0.565,0.146c0.313,0.104,0.313,0.104,0.313,0.104c0.31,0.102,0.633,0.227,0.98,0.37c0.003,0,0.003,0,0.171,0.074
		c0.151,0.057,0.271,0.094,0.271,0.094c0.116,0.036,0.207,0.053,0.272,0.053c0,0,0.04,0,0.083-0.012
		c0.043-0.025,0.043-0.025,0.043-0.025c0.056-0.026,0.119-0.071,0.183-0.127c0,0,0,0,0.063-0.055c0.07,0.039,0.07,0.039,0.07,0.039
		l0.222,0.129c0,0,0,0,0.106,0.059c-0.05,0.116-0.05,0.116-0.05,0.116l-1.261,2.784c0,0,0,0-0.055,0.123
		C83.5,21.399,83.5,21.399,83.5,21.399l-0.224-0.127c0,0,0,0-0.065-0.038c0-0.078,0-0.078,0-0.078
		c-0.003-0.083-0.01-0.155-0.02-0.216c0,0-0.011-0.053-0.021-0.095c-0.015-0.029-0.015-0.029-0.015-0.029
		c-0.015-0.032-0.041-0.067-0.08-0.107c0,0-0.044-0.046-0.101-0.098c-0.068-0.055-0.068-0.055-0.068-0.055
		c-0.153-0.125-0.342-0.241-0.563-0.347c0,0-0.231-0.11-0.494-0.209c-0.302-0.089-0.302-0.089-0.606-0.178
		c-0.293-0.068-0.582-0.114-0.582-0.114s-0.283-0.046-0.56-0.067c-0.27,0-0.27,0-0.814,0c-0.499,0.082-0.948,0.247-0.948,0.247
		c-0.448,0.166-0.849,0.413-1.201,0.744c0,0-0.404,0.374-0.704,0.808c-0.201,0.492-0.201,0.492-0.398,0.986
		c-0.102,0.555-0.102,1.171-0.102,1.171c0,0.599,0.099,1.135,0.293,1.615c0,0,0.194,0.478,0.486,0.898
		c0.395,0.367,0.395,0.367,0.753,0.703c0.416,0.251,0.888,0.42,0.888,0.42c0.478,0.168,1.011,0.253,1.605,0.253
		c0,0,0.292,0,0.583-0.02c0.286-0.034,0.286-0.034,0.571-0.072c0.283-0.056,0.565-0.127,0.565-0.127
		c0-0.001,0.284-0.074,0.547-0.161c0.241-0.098,0.241-0.098,0.459-0.187c0.204-0.099,0.391-0.21,0.391-0.21V25.328z"/>
</g>
<g id="SPLINE_8_">
	<polyline fill="#FEFFFF" points="90.398,24.401 90.398,27.33 97.129,27.33 97.3,27.306 97.3,27.305 97.409,27.243 97.409,27.243 
		97.496,27.116 97.496,27.116 97.576,26.887 97.601,26.79 97.692,26.79 97.948,26.79 98.069,26.79 98.069,26.92 98.069,29.922 
		98.069,30.055 97.948,30.055 97.692,30.055 97.601,30.055 97.576,29.956 97.496,29.727 97.496,29.729 97.409,29.6 97.409,29.6 
		97.3,29.538 97.3,29.538 97.129,29.512 87.438,29.512 87.319,29.512 87.319,29.382 87.319,29.103 87.319,29.002 87.406,28.975 
		87.621,28.886 87.733,28.793 87.733,28.793 87.792,28.676 87.815,28.479 87.815,18.648 87.792,18.453 87.733,18.333 87.733,18.333 
		87.617,18.239 87.617,18.239 87.41,18.154 87.319,18.127 87.319,18.026 87.319,17.747 87.319,17.614 87.438,17.614 96.938,17.614 
		97.11,17.591 97.11,17.591 97.217,17.527 97.217,17.527 97.303,17.398 97.303,17.398 97.382,17.171 97.409,17.074 97.5,17.074 
		97.756,17.074 97.877,17.074 97.877,17.205 97.877,20.206 97.877,20.338 97.756,20.338 97.5,20.338 97.409,20.338 97.382,20.241 
		97.303,20.015 97.303,20.015 97.217,19.883 97.217,19.883 97.11,19.822 97.11,19.822 96.941,19.797 90.398,19.797 90.398,22.29 
		94.598,22.29 94.771,22.265 94.771,22.265 94.877,22.203 94.877,22.203 94.967,22.076 95.044,21.845 95.067,21.748 95.161,21.748 
		95.418,21.748 95.541,21.748 95.541,21.88 95.541,24.811 95.541,24.943 95.418,24.943 95.161,24.943 95.07,24.943 95.044,24.846 
		94.967,24.621 94.875,24.49 94.875,24.49 94.771,24.426 94.598,24.401 90.398,24.401 	"/>
</g>
<g id="SPLINE_9_">
	<polyline fill="#FEFFFF" points="15.061,40.249 11.71,40.249 11.214,41.369 11.139,41.573 11.118,41.7 11.175,41.838 11.41,41.955 
		11.5,41.98 11.5,42.083 11.5,42.284 11.5,42.418 11.38,42.418 8.811,42.418 8.69,42.418 8.69,42.284 8.69,42.083 8.69,41.976 
		8.787,41.953 8.963,41.895 8.963,41.895 9.076,41.814 9.184,41.658 9.319,41.371 9.321,41.371 12.177,34.876 12.273,34.617 
		12.273,34.617 12.301,34.438 12.25,34.281 12.248,34.281 12.054,34.155 11.97,34.125 11.97,34.029 11.97,33.828 11.97,33.695 
		12.092,33.695 14.845,33.695 14.965,33.695 14.965,33.828 14.965,34.029 14.965,34.129 14.878,34.156 14.677,34.266 14.631,34.395 
		14.652,34.551 14.652,34.551 14.723,34.743 14.725,34.745 17.679,41.258 17.851,41.594 17.983,41.789 17.983,41.789 18.117,41.888 
		18.302,41.953 18.4,41.973 18.4,42.083 18.4,42.284 18.4,42.418 18.281,42.418 15.416,42.418 15.294,42.418 15.294,42.284 
		15.294,42.083 15.294,41.973 15.395,41.953 15.614,41.856 15.667,41.697 15.647,41.577 15.647,41.577 15.566,41.369 15.566,41.369 
		15.061,40.249 	"/>
</g>
<g id="SPLINE_10_">
	<polyline fill="#0C3647" points="14.463,38.83 13.403,36.293 12.325,38.83 14.463,38.83 	"/>
</g>
<g id="SPLINE_11_">
	<polyline fill="#FEFFFF" points="25.069,42.348 22.439,36.97 22.439,41.629 22.451,41.761 22.487,41.835 22.562,41.895 
		22.711,41.955 22.798,41.984 22.798,42.083 22.798,42.284 22.798,42.418 22.675,42.418 20.407,42.418 20.285,42.418 20.285,42.284 
		20.285,42.083 20.285,41.984 20.374,41.955 20.523,41.895 20.597,41.835 20.631,41.761 20.646,41.629 20.646,34.475 20.631,34.349 
		20.631,34.349 20.597,34.277 20.52,34.217 20.374,34.156 20.285,34.129 20.285,34.029 20.285,33.828 20.285,33.695 20.407,33.695 
		23.391,33.695 23.511,33.695 23.511,33.828 23.511,34.029 23.511,34.132 23.42,34.159 23.281,34.237 23.242,34.371 23.258,34.464 
		23.309,34.593 25.315,38.731 27.349,34.667 27.447,34.438 27.476,34.314 27.443,34.213 27.443,34.213 27.299,34.161 27.193,34.148 
		27.193,34.029 27.193,33.828 27.193,33.695 27.313,33.695 30.247,33.695 30.37,33.695 30.37,33.828 30.37,34.029 30.37,34.129 
		30.279,34.156 30.131,34.217 30.057,34.277 30.021,34.349 30.008,34.475 30.008,41.629 30.021,41.761 30.057,41.835 30.131,41.895 
		30.283,41.955 30.37,41.984 30.37,42.083 30.37,42.284 30.37,42.418 30.247,42.418 27.828,42.418 27.704,42.418 27.704,42.284 
		27.704,42.083 27.704,41.98 27.794,41.955 27.937,41.898 28.012,41.838 28.012,41.838 28.052,41.761 28.052,41.761 28.063,41.629 
		28.063,36.947 25.282,42.348 25.173,42.561 25.069,42.348 	"/>
</g>
<g id="SPLINE_12_">
	<path fill="#FEFFFF" d="M40.311,37.837c0.342,0.181,0.607,0.414,0.8,0.706c0,0,0.234,0.356,0.352,0.792c0,0.514,0,0.514,0,0.917
		c-0.069,0.364-0.205,0.684-0.205,0.684c-0.133,0.322-0.335,0.602-0.604,0.831c0,0.005,0,0.005-0.136,0.117
		c-0.147,0.1-0.303,0.181-0.303,0.181c-0.157,0.085-0.327,0.152-0.501,0.201c0,0-0.177,0.05-0.372,0.09
		c-0.218,0.024-0.218,0.024-0.431,0.049c-0.236,0.014-0.49,0.014-0.49,0.014h-5.303c0,0,0,0-0.123,0c0-0.135,0-0.135,0-0.135v-0.201
		c0,0,0,0,0-0.099c0.091-0.029,0.091-0.029,0.091-0.029c0.059-0.017,0.109-0.039,0.146-0.06c0,0,0.036-0.021,0.059-0.039
		c0.017-0.021,0.017-0.021,0.032-0.038c0.01-0.025,0.021-0.057,0.021-0.057c0.01-0.036,0.013-0.079,0.013-0.132c0,0,0,0,0-7.146
		c0,0,0,0,0-0.054c-0.003-0.044-0.013-0.08-0.013-0.08c-0.011-0.029-0.021-0.055-0.036-0.072c0,0-0.017-0.021-0.043-0.043
		c-0.032-0.017-0.032-0.017-0.071-0.04c-0.048-0.02-0.106-0.038-0.106-0.038l-0.091-0.026c0,0,0,0,0-0.101c0-0.201,0-0.201,0-0.201
		v-0.133c0,0,0,0,0.123,0c5.255,0,5.255,0,5.255,0c0.25,0,0.482,0.011,0.69,0.031c0,0,0.212,0.021,0.393,0.055
		c0.163,0.044,0.163,0.044,0.163,0.044c0.158,0.042,0.311,0.1,0.456,0.175c0,0,0.143,0.073,0.276,0.164
		c0.119,0.104,0.119,0.104,0.119,0.104c0.246,0.209,0.431,0.466,0.554,0.769c0,0,0.12,0.299,0.181,0.643c0,0.388,0,0.388,0,0.827
		c-0.094,0.378-0.282,0.696-0.282,0.696C40.776,37.453,40.57,37.666,40.311,37.837z"/>
</g>
<g id="SPLINE_13_">
	<polyline fill="#0C3647" points="35.3,37.054 38.151,37.054 38.698,37.004 39.02,36.867 39.02,36.867 39.208,36.603 39.275,36.206 
		39.214,35.81 39.04,35.555 38.703,35.407 38.151,35.353 35.3,35.353 35.3,37.054 	"/>
</g>
<g id="SPLINE_14_">
	<path fill="#0C3647" d="M35.3,40.758h2.757c0,0,0.261,0,0.482-0.019c0.186-0.037,0.186-0.037,0.363-0.076
		c0.141-0.054,0.244-0.124,0.244-0.124c0.116-0.082,0.201-0.188,0.259-0.315c0,0,0.06-0.135,0.09-0.298c0-0.191,0-0.191,0-0.379
		c-0.03-0.163-0.09-0.296-0.09-0.296s-0.058-0.13-0.146-0.235c-0.113-0.083-0.113-0.083-0.113-0.083
		c-0.104-0.071-0.244-0.124-0.419-0.161c0,0-0.186-0.038-0.41-0.059c-0.261,0-0.261,0-0.261,0c-2.757,0-2.757,0-2.757,0V40.758z"/>
</g>
<g id="SPLINE_15_">
	<polyline fill="#FEFFFF" points="44.204,41.629 44.204,34.475 44.188,34.349 44.188,34.349 44.153,34.277 44.077,34.217 
		43.931,34.156 43.838,34.129 43.838,34.029 43.838,33.828 43.838,33.695 43.964,33.695 46.386,33.695 46.506,33.695 46.506,33.828 
		46.506,34.029 46.506,34.132 46.417,34.156 46.268,34.215 46.268,34.215 46.197,34.271 46.197,34.273 46.162,34.349 46.144,34.475 
		46.144,41.629 46.162,41.761 46.162,41.761 46.197,41.838 46.197,41.838 46.271,41.898 46.417,41.955 46.506,41.98 46.506,42.083 
		46.506,42.284 46.506,42.418 46.386,42.418 43.964,42.418 43.838,42.418 43.838,42.284 43.838,42.083 43.838,41.984 43.931,41.955 
		44.081,41.895 44.153,41.835 44.188,41.761 44.204,41.629 	"/>
</g>
<g id="SPLINE_16_">
	<polyline fill="#FEFFFF" points="51.417,38.702 51.417,40.758 56.278,40.758 56.395,40.74 56.461,40.706 56.462,40.706 
		56.52,40.621 56.571,40.465 56.596,40.366 56.687,40.366 56.875,40.366 56.998,40.366 56.998,40.498 56.998,42.678 56.998,42.813 
		56.875,42.813 56.687,42.813 56.596,42.813 56.571,42.713 56.52,42.554 56.462,42.472 56.461,42.472 56.395,42.433 56.395,42.433 
		56.278,42.418 49.234,42.418 49.114,42.418 49.114,42.284 49.114,42.083 49.114,41.984 49.202,41.955 49.353,41.895 49.426,41.835 
		49.459,41.761 49.475,41.629 49.475,34.483 49.459,34.349 49.426,34.277 49.349,34.217 49.205,34.156 49.114,34.129 49.114,34.029 
		49.114,33.828 49.114,33.695 49.234,33.695 56.139,33.695 56.255,33.679 56.322,33.641 56.322,33.641 56.379,33.556 56.43,33.399 
		56.458,33.301 56.548,33.301 56.736,33.301 56.857,33.301 56.857,33.434 56.857,35.616 56.857,35.746 56.736,35.746 56.548,35.746 
		56.458,35.746 56.43,35.649 56.379,35.491 56.322,35.407 56.322,35.407 56.255,35.37 56.255,35.37 56.142,35.353 51.417,35.353 
		51.417,37.093 54.441,37.093 54.553,37.078 54.553,37.078 54.623,37.039 54.677,36.958 54.734,36.798 54.756,36.701 54.848,36.701 
		55.035,36.701 55.155,36.701 55.155,36.832 55.155,38.963 55.155,39.095 55.035,39.095 54.848,39.095 54.756,39.095 54.734,38.999 
		54.677,38.84 54.619,38.756 54.619,38.756 54.553,38.717 54.441,38.702 51.417,38.702 	"/>
</g>
<g id="SPLINE_17_">
	<polyline fill="#FEFFFF" points="61.572,36.82 61.572,41.629 61.588,41.761 61.622,41.835 61.695,41.895 61.846,41.955 
		61.933,41.984 61.933,42.083 61.933,42.284 61.933,42.418 61.814,42.418 59.541,42.418 59.42,42.418 59.42,42.284 59.42,42.083 
		59.42,41.984 59.507,41.955 59.657,41.895 59.732,41.835 59.764,41.761 59.779,41.629 59.779,34.475 59.764,34.349 59.764,34.349 
		59.732,34.277 59.654,34.217 59.51,34.156 59.42,34.129 59.42,34.029 59.42,33.828 59.42,33.695 59.541,33.695 62.172,33.695 
		62.297,33.695 62.297,33.828 62.297,34.029 62.297,34.132 62.203,34.159 62.079,34.223 62.083,34.223 62.053,34.314 62.176,34.551 
		66.268,39.163 66.268,34.475 66.251,34.349 66.218,34.277 66.141,34.217 66.141,34.217 65.998,34.156 65.908,34.129 65.908,34.029 
		65.908,33.828 65.908,33.695 66.027,33.695 68.3,33.695 68.419,33.695 68.419,33.828 68.419,34.029 68.419,34.129 68.331,34.156 
		68.184,34.217 68.184,34.217 68.109,34.277 68.072,34.349 68.06,34.475 68.06,41.629 68.072,41.761 68.109,41.835 68.184,41.895 
		68.333,41.955 68.419,41.984 68.419,42.083 68.419,42.284 68.419,42.418 68.3,42.418 65.859,42.418 65.735,42.418 65.735,42.284 
		65.735,42.083 65.735,41.976 65.833,41.953 65.95,41.895 65.95,41.895 65.975,41.818 65.928,41.721 65.732,41.474 61.572,36.82 	
		"/>
</g>
<g id="SPLINE_18_">
	<polyline fill="#FEFFFF" points="75.345,35.353 75.345,41.629 75.362,41.761 75.393,41.835 75.467,41.895 75.618,41.955 
		75.706,41.984 75.706,42.083 75.706,42.284 75.706,42.418 75.584,42.418 73.163,42.418 73.042,42.418 73.042,42.284 73.042,42.083 
		73.042,41.984 73.13,41.955 73.279,41.895 73.351,41.835 73.387,41.761 73.402,41.629 73.402,35.353 71.125,35.353 71.005,35.37 
		70.945,35.405 70.94,35.408 70.889,35.486 70.889,35.486 70.833,35.649 70.807,35.746 70.716,35.746 70.528,35.746 70.409,35.746 
		70.409,35.616 70.409,33.434 70.409,33.301 70.528,33.301 70.716,33.301 70.806,33.301 70.831,33.398 70.889,33.56 70.945,33.643 
		71.008,33.68 71.008,33.68 71.125,33.695 77.618,33.695 77.738,33.679 77.738,33.679 77.802,33.643 77.858,33.56 77.858,33.56 
		77.915,33.399 77.937,33.301 78.031,33.301 78.216,33.301 78.338,33.301 78.338,33.434 78.338,35.616 78.338,35.746 78.216,35.746 
		78.031,35.746 77.937,35.746 77.915,35.649 77.858,35.486 77.858,35.486 77.806,35.407 77.802,35.405 77.738,35.37 77.618,35.353 
		75.345,35.353 	"/>
</g>
<g id="SPLINE_19_">
	<polyline fill="#FEFFFF" points="85.172,40.249 81.822,40.249 81.328,41.369 81.252,41.573 81.252,41.573 81.229,41.7 
		81.286,41.838 81.518,41.955 81.613,41.98 81.613,42.083 81.613,42.284 81.613,42.418 81.491,42.418 78.925,42.418 78.801,42.418 
		78.801,42.284 78.801,42.083 78.801,41.976 78.9,41.953 79.075,41.895 79.075,41.895 79.189,41.814 79.295,41.658 79.432,41.371 
		79.432,41.371 82.291,34.876 82.384,34.619 82.414,34.438 82.362,34.281 82.362,34.281 82.163,34.155 82.083,34.125 82.083,34.029 
		82.083,33.828 82.083,33.695 82.202,33.695 84.958,33.695 85.079,33.695 85.079,33.828 85.079,34.029 85.079,34.129 84.99,34.156 
		84.792,34.266 84.743,34.395 84.766,34.551 84.766,34.551 84.833,34.743 84.836,34.745 87.79,41.258 87.961,41.594 88.094,41.789 
		88.094,41.789 88.231,41.888 88.414,41.953 88.515,41.973 88.515,42.083 88.515,42.284 88.515,42.418 88.391,42.418 85.526,42.418 
		85.407,42.418 85.407,42.284 85.407,42.083 85.407,41.973 85.506,41.953 85.725,41.856 85.781,41.697 85.755,41.577 85.755,41.577 
		85.678,41.369 85.678,41.369 85.172,40.249 	"/>
</g>
<g id="SPLINE_20_">
	<polyline fill="#0C3647" points="84.574,38.83 83.513,36.293 82.437,38.83 84.574,38.83 	"/>
</g>
<g id="SPLINE_21_">
	<polyline fill="#FEFFFF" points="92.701,40.758 97.347,40.758 97.466,40.74 97.536,40.706 97.536,40.706 97.59,40.621 
		97.647,40.465 97.669,40.366 97.764,40.366 97.948,40.366 98.069,40.366 98.069,40.498 98.069,42.678 98.069,42.813 97.948,42.813 
		97.764,42.813 97.669,42.813 97.647,42.713 97.59,42.554 97.536,42.472 97.536,42.472 97.466,42.433 97.347,42.418 90.517,42.418 
		90.398,42.418 90.398,42.284 90.398,42.083 90.398,41.984 90.485,41.955 90.633,41.895 90.71,41.835 90.742,41.761 90.759,41.629 
		90.759,34.483 90.742,34.349 90.71,34.277 90.632,34.217 90.485,34.156 90.398,34.129 90.398,34.029 90.398,33.828 90.398,33.695 
		90.517,33.695 92.94,33.695 93.06,33.695 93.06,33.828 93.06,34.029 93.06,34.132 92.969,34.156 92.824,34.215 92.824,34.215 
		92.75,34.271 92.75,34.273 92.716,34.349 92.716,34.349 92.701,34.483 92.701,40.758 	"/>
</g>
<g id="SPLINE_22_">
	<polyline fill="#FEFFFF" points="-6.286,48.941 -9.001,48.743 -11.634,48.167 -14.154,47.231 -16.534,45.95 -18.74,44.349 
		-20.746,42.44 -22.52,40.245 -24.034,37.785 -25.236,35.125 -26.092,32.356 -26.607,29.509 -26.779,26.627 -26.607,23.745 
		-26.092,20.898 -25.236,18.129 -24.034,15.472 -22.52,13.009 -20.746,10.815 -18.74,8.906 -16.534,7.305 -14.154,6.025 
		-11.634,5.086 -9.001,4.511 -6.286,4.314 -6.286,7.167 -8.654,7.336 -10.95,7.839 -13.148,8.657 -15.223,9.772 -17.147,11.171 
		-18.897,12.835 -20.445,14.749 -21.765,16.896 -22.813,19.214 -23.562,21.631 -24.011,24.113 -24.161,26.627 -24.011,29.141 
		-23.562,31.624 -22.813,34.041 -21.765,36.357 -20.445,38.505 -18.897,40.418 -17.147,42.083 -15.225,43.481 -13.148,44.597 
		-10.95,45.415 -8.654,45.917 -6.286,46.086 -6.286,48.941 	"/>
</g>
<g id="SPLINE_23_">
	<polyline fill="#FEFFFF" points="-26.779,48.953 -26.779,8.706 -26.779,4.303 -28.627,4.303 -58.081,48.953 -54.855,48.953 
		-29.397,10.357 -29.397,48.953 -26.779,48.953 	"/>
</g>
<g id="SPLINE_24_">
	<path fill="#FEFFFF" d="M-33.402,27.462H1.773c0,0,0,0,0,25.936c-2.717,0-2.717,0-2.717,0V30.42c0,0,0,0-3.723,0
		c-28.735,0-28.735,0-28.735,0V27.462z"/>
</g>
</svg>
