<?xml version="1.0"?>
<svg xmlns="http://www.w3.org/2000/svg" viewBox="0 0 50 50">
    <path style="text-indent:0;text-align:start;line-height:normal;text-transform:none;block-progression:tb;-inkscape-font-specification:Bitstream Vera Sans" d="M 24.90625 6 A 1.0001 1.0001 0 0 0 24.6875 6.0625 L 6.875 12 L 6 12 C 3.8026661 12 2 13.802666 2 16 L 2 43 A 1.0001 1.0001 0 0 0 3 44 L 47 44 A 1.0001 1.0001 0 0 0 48 43 L 48 16 C 48 13.802666 46.197334 12 44 12 L 43.125 12 L 25.3125 6.0625 A 1.0001 1.0001 0 0 0 24.90625 6 z M 25 8.03125 L 36.875 12 L 19 12 L 13 14 L 44 14 C 45.116666 14 46 14.883334 46 16 L 46 42 L 4 42 L 4 16 C 4 14.883334 4.8833339 14 6 14 L 7 14 A 1.0001 1.0001 0 0 0 7.3125 13.9375 L 25 8.03125 z M 24.8125 20 A 1.0001 1.0001 0 0 0 24.21875 20.375 C 24.21875 20.375 22.936646 21.955054 21.65625 23.90625 C 21.016052 24.881848 20.373834 25.96437 19.875 27 C 19.376166 28.03563 19 29.007927 19 30 C 19 33.301625 21.698375 36 25 36 C 28.301625 36 31 33.301625 31 30 C 31 29.007927 30.623834 28.03563 30.125 27 C 29.626166 25.96437 28.983948 24.881848 28.34375 23.90625 C 27.063354 21.955054 25.78125 20.375 25.78125 20.375 A 1.0001 1.0001 0 0 0 24.90625 20 A 1.0001 1.0001 0 0 0 24.8125 20 z M 25 22.71875 C 25.448674 23.302728 25.830399 23.741486 26.65625 25 C 27.266052 25.929277 27.873834 26.964286 28.3125 27.875 C 28.751166 28.785714 29 29.611573 29 30 C 29 32.220375 27.220375 34 25 34 C 22.779625 34 21 32.220375 21 30 C 21 29.611573 21.248834 28.785714 21.6875 27.875 C 22.126166 26.964286 22.733948 25.929277 23.34375 25 C 24.169601 23.741486 24.551326 23.302728 25 22.71875 z" overflow="visible" font-family="Bitstream Vera Sans"/>
</svg>
