<?xml version="1.0"?>
<svg xmlns="http://www.w3.org/2000/svg" viewBox="0 0 50 50" enable-background="new 0 0 50 50">
    <path style="text-indent:0;text-align:start;line-height:normal;text-transform:none;block-progression:tb;-inkscape-font-specification:Bitstream Vera Sans" d="M 0.8125 0 A 1.001098 1.001098 0 0 0 1 2 L 1 9.8125 C 1 17.059764 6.9402363 23 14.1875 23 L 24 23 A 1.0001 1.0001 0 1 0 26 23 L 35.8125 23 C 36.456944 23 37 23.543056 37 24.1875 L 37 32 A 1.0001 1.0001 0 0 0 36.90625 32 A 1.001098 1.001098 0 0 0 37 34 L 49 34 A 1.0001 1.0001 0 1 0 49 32 L 49 24.1875 C 49 16.940236 43.059764 11 35.8125 11 L 26 11 A 1.0001 1.0001 0 0 0 24.78125 10 A 1.0001 1.0001 0 0 0 24 11 L 14.1875 11 C 13.543056 11 13 10.456944 13 9.8125 L 13 2 A 1.0001 1.0001 0 1 0 13 0 L 1 0 A 1.0001 1.0001 0 0 0 0.90625 0 A 1.001098 1.001098 0 0 0 0.8125 0 z M 3 2 L 11 2 L 11 9.8125 C 11 11.568056 12.431944 13 14.1875 13 L 24 13 L 24 21 L 14.1875 21 C 8.0347637 21 3 15.965236 3 9.8125 L 3 2 z M 26 13 L 35.8125 13 C 41.965236 13 47 18.034764 47 24.1875 L 47 32 L 39 32 L 39 24.1875 C 39 22.431944 37.568056 21 35.8125 21 L 26 21 L 26 13 z M 43 34.03125 L 42.125 35.5 C 42.125 35.5 41.110649 37.210374 40.09375 39.21875 C 39.5853 40.222938 39.080805 41.319405 38.6875 42.3125 C 38.294195 43.305595 38 44.14697 38 45 C 38 47.745455 40.254545 50 43 50 C 45.745455 50 48 47.745455 48 45 C 48 44.14697 47.705805 43.305595 47.3125 42.3125 C 46.919195 41.319405 46.4147 40.222938 45.90625 39.21875 C 44.889351 37.210374 43.875 35.5 43.875 35.5 L 43 34.03125 z M 43 38.125 C 43.378344 38.798289 43.550492 39.052065 44.09375 40.125 C 44.5853 41.095812 45.080805 42.130595 45.4375 43.03125 C 45.794195 43.931905 46 44.75303 46 45 C 46 46.654545 44.654545 48 43 48 C 41.345455 48 40 46.654545 40 45 C 40 44.75303 40.205805 43.931905 40.5625 43.03125 C 40.919195 42.130595 41.4147 41.095812 41.90625 40.125 C 42.449508 39.052065 42.621656 38.798289 43 38.125 z" overflow="visible" enable-background="accumulate" font-family="Bitstream Vera Sans"/>
</svg>
